<?xml version="1.0" encoding="utf-8"?>
<!-- Generator: Adobe Illustrator 21.1.0, SVG Export Plug-In . SVG Version: 6.00 Build 0)  -->
<svg version="1.1"
	 xmlns="http://www.w3.org/2000/svg" xmlns:xlink="http://www.w3.org/1999/xlink" xmlns:a="http://ns.adobe.com/AdobeSVGViewerExtensions/3.0/"
	 x="0px" y="0px" width="28px" height="54px" viewBox="0 0 28 54" style="enable-background:new 0 0 28 54;" xml:space="preserve">
<g id="Dark">
</g>
<g id="Light">
	<g id="Homepod_1_">
		<path id="Homepod_4_" style="fill:#333333;" d="M21.12,18.43c0,0.38-3.19,0.68-7.12,0.68s-7.12-0.31-7.12-0.68
			c0-0.38,3.19-0.68,7.12-0.68S21.12,18.06,21.12,18.43z M22.19,18.81c-0.16,0.46-1.21,1.15-8.19,1.15s-8.03-0.69-8.19-1.15
			C2.52,19.38,0,21.87,0,25.31v17.97c0,3.45,2.54,6.33,5.84,6.88c0.24,0.46,1.52,1.08,8.16,1.08s7.92-0.63,8.16-1.08
			c3.3-0.56,5.84-3.44,5.84-6.88V25.31C28,21.87,25.48,19.38,22.19,18.81z"/>
		<rect style="fill:none;" width="28" height="54"/>
	</g>
</g>
</svg>
