<svg id="Light" xmlns="http://www.w3.org/2000/svg" width="31.992" height="54" viewBox="0 0 31.992 54">
  <defs>
    <style>
      .cls-1 {
        fill: #333;
        fill-rule: evenodd;
      }
    </style>
  </defs>
  <title>Vector Smart Object3</title>
  <g>
    <path class="cls-1" d="M31.359,23.264a6.774,6.774,0,0,0-4.3-3.857A13.931,13.931,0,0,0,23.192,19H8.792a13.931,13.931,0,0,0-3.867.407,6.774,6.774,0,0,0-4.3,3.857A12.545,12.545,0,0,0-.008,27.8V42.2a12.545,12.545,0,0,0,.633,4.536,6.774,6.774,0,0,0,4.3,3.857A13.934,13.934,0,0,0,8.792,51h14.4a13.934,13.934,0,0,0,3.867-.407,6.774,6.774,0,0,0,4.3-3.857,12.545,12.545,0,0,0,.633-4.536V27.8A12.545,12.545,0,0,0,31.359,23.264ZM6.336,41H5.147V33.891H6.336V41ZM5.741,32.694a0.738,0.738,0,1,1,.745-0.738A0.744,0.744,0,0,1,5.741,32.694Zm7.147,8.485c-3.141,0-5.117-2.242-5.117-5.812s1.977-5.82,5.117-5.82,5.125,2.25,5.125,5.82S16.037,41.18,12.889,41.18Zm10.367,0c-2.359,0-4.016-1.3-4.133-3.242h1.07c0.117,1.352,1.391,2.273,3.156,2.273,1.688,0,2.9-.922,2.9-2.187,0-1.055-.727-1.68-2.4-2.1l-1.4-.359c-2.086-.531-3.016-1.414-3.016-2.9,0-1.82,1.641-3.117,3.859-3.117,2.2,0,3.8,1.3,3.867,3.086h-1.07c-0.1-1.273-1.227-2.117-2.828-2.117-1.562,0-2.719.867-2.719,2.109,0,0.969.7,1.539,2.359,1.961L24.123,34.9c2.266,0.57,3.219,1.438,3.219,3.008C27.342,39.883,25.748,41.18,23.256,41.18Z"/>
    <path class="cls-1" d="M12.889,30.539c-2.469,0-4.023,1.867-4.023,4.828s1.555,4.82,4.023,4.82,4.031-1.867,4.031-4.82S15.358,30.539,12.889,30.539Z"/>
  </g>
</svg>
