<?xml version="1.0" encoding="utf-8"?>
<!-- Generator: Adobe Illustrator 16.0.4, SVG Export Plug-In . SVG Version: 6.00 Build 0)  -->
<!DOCTYPE svg PUBLIC "-//W3C//DTD SVG 1.1//EN" "http://www.w3.org/Graphics/SVG/1.1/DTD/svg11.dtd">
<svg version="1.1" xmlns="http://www.w3.org/2000/svg" xmlns:xlink="http://www.w3.org/1999/xlink" x="0px" y="0px" width="52px"
	 height="54px" viewBox="0 0 52 54" enable-background="new 0 0 52 54" xml:space="preserve">
<g id="Dark">
	<g id="Mac_1_">
		<path id="MacBook_Air_1_" fill="#EFEFEF" d="M47,49V25.5c0-0.959-0.522-1.5-1.5-1.5h-39C5.522,24,5,24.504,5,25.5V49H0
			c0.053,0.092,0.127,0.323,0.211,0.323c0,0,2.071,1.248,4.639,1.422c2.566,0.174,7.59,0.265,7.596,0.252
			C12.448,50.994,25.366,51,25.366,51l12.969-0.003c0,0,6.023-0.081,8.59-0.252c2.568-0.171,4.639-1.422,4.639-1.422
			c0.084,0,0.383-0.231,0.436-0.323H47z M7,26h38v23H7V26z"/>
	</g>
</g>
<g id="Light">
</g>
</svg>
