<svg xmlns="http://www.w3.org/2000/svg" viewBox="0 0 32 54"><defs><style>.cls-1{fill:none;}.cls-2{fill:#333;}</style></defs><title>family-chapternav-iPad-master-09-crawford</title><g id="Light"><g id="iOS"><rect class="cls-1" y="0.02" width="32" height="54"/><path id="iOS-2" data-name="iOS" class="cls-2" d="M31.35,23.29a6.77,6.77,0,0,0-4.3-3.85A13.92,13.92,0,0,0,23.19,19H8.81a13.92,13.92,0,0,0-3.86.41,6.77,6.77,0,0,0-4.3,3.85A12.54,12.54,0,0,0,0,27.82V42.21a12.54,12.54,0,0,0,.63,4.53,6.77,6.77,0,0,0,4.3,3.85A13.92,13.92,0,0,0,8.81,51H23.19a13.92,13.92,0,0,0,3.86-.41,6.77,6.77,0,0,0,4.3-3.85A12.54,12.54,0,0,0,32,42.21V27.82A12.54,12.54,0,0,0,31.35,23.29ZM6.35,41H5.16V33.91H6.35Zm-.59-8.3A.74.74,0,1,1,6.5,32,.74.74,0,0,1,5.76,32.71Zm7.14,8.48c-3.14,0-5.11-2.24-5.11-5.81s2-5.82,5.11-5.82S18,31.81,18,35.38s-2,5.81-5.12,5.81Zm10.36,0c-2.36,0-4-1.3-4.13-3.24H20.2c.12,1.35,1.39,2.27,3.15,2.27s2.9-.92,2.9-2.19c0-1.05-.73-1.68-2.4-2.1l-1.4-.36c-2.08-.53-3-1.41-3-2.9,0-1.82,1.64-3.12,3.86-3.12s3.8,1.3,3.86,3.08H26.09c-.1-1.27-1.23-2.12-2.83-2.12s-2.72.87-2.72,2.11c0,1,.7,1.54,2.36,2l1.22.31c2.26.57,3.22,1.44,3.22,3,0,2-1.59,3.27-4.08,3.27ZM12.9,30.56c-2.47,0-4,1.87-4,4.83s1.55,4.82,4,4.82,4-1.87,4-4.82S15.37,30.56,12.9,30.56Z"/></g></g></svg>