<svg xmlns="http://www.w3.org/2000/svg" viewBox="0 0 28 54"><defs><style>.cls-1{fill:#333;fill-rule:evenodd;}.cls-2{fill:none;}</style></defs><title>family-chapternav-iPad-master-09-crawford</title><g id="Light"><g id="iPad"><path id="iPad-2" data-name="iPad" class="cls-1" d="M26.74,11H1.26A1.24,1.24,0,0,0,0,12.25v37.5A1.24,1.24,0,0,0,1.26,51H26.74A1.24,1.24,0,0,0,28,49.75V12.25A1.24,1.24,0,0,0,26.74,11ZM14,12.5a.5.5,0,1,1-.5.5A.5.5,0,0,1,14,12.5ZM14,50a1,1,0,1,1,1-1A1,1,0,0,1,14,50Zm12-3H2V15H26Z"/><rect class="cls-2" width="28" height="54"/></g></g></svg>