<svg xmlns="http://www.w3.org/2000/svg" viewBox="0 0 33 54"><defs><style>.cls-1{fill:#333;}.cls-2{fill:none;}</style></defs><title>family-chapternav-iPad-master-01-lily</title><g id="Light"><g id="Accessories"><path id="iPad_Accessories" data-name="iPad Accessories" class="cls-1" d="M30,51h1.5A1.45,1.45,0,0,0,33,49.5V4.5A1.45,1.45,0,0,0,31.5,3H30V8h1V46H30Zm-1,.51v-49A1.72,1.72,0,0,0,27.5,1c-.5,0-6,1.5-6,1.5A2.47,2.47,0,0,0,20,4.62V49.38a2.47,2.47,0,0,0,1.5,2.12S27,53,27.5,53A1.61,1.61,0,0,0,29,51.51ZM0,4.7V49.3A1.71,1.71,0,0,0,1.72,51H10a2.63,2.63,0,0,1-1-1.7V4.7A2.62,2.62,0,0,1,10,3H1.72A1.71,1.71,0,0,0,0,4.7Zm10,0V49.3A1.71,1.71,0,0,0,11.72,51H20a2.63,2.63,0,0,1-1-1.7V4.7A2.62,2.62,0,0,1,20,3H11.72A1.71,1.71,0,0,0,10,4.7Z"/><rect class="cls-2" width="33" height="54"/></g></g></svg>