<svg xmlns="http://www.w3.org/2000/svg" viewBox="0 0 46 54"><defs><style>.cls-1{fill:#333;fill-rule:evenodd;}</style></defs><title>family-chapternav-iPad-master-09-crawford</title><g id="Light"><path id="iPad_Compare" data-name="iPad Compare" class="cls-1" d="M20.74,20H1.27A1.3,1.3,0,0,0,0,21.26V49.8A1.26,1.26,0,0,0,1.27,51H20.74A1.31,1.31,0,0,0,22,49.74V21.26A1.3,1.3,0,0,0,20.74,20Zm-9.79,1.25a.43.43,0,1,1-.43.43A.43.43,0,0,1,10.94,21.25ZM11,50.5a1,1,0,1,1,1-1A1,1,0,0,1,11,50.5ZM20,48H2V23H20ZM33.74,11H8.26A1.24,1.24,0,0,0,7,12.25V19H9V15H33V47H23v2.59c0,.8-.1,1.19-.69,1.41H33.74A1.24,1.24,0,0,0,35,49.75V12.25A1.24,1.24,0,0,0,33.74,11ZM21,13.5a.5.5,0,1,1,.5-.5A.5.5,0,0,1,21,13.5Z"/><path class="cls-1" d="M35.39,51h9.24A1.34,1.34,0,0,0,46,49.68V4.51A1.51,1.51,0,0,0,44.64,3H13.31A1.48,1.48,0,0,0,12,4.56V10h2V6.05A1,1,0,0,1,15,5H43a1,1,0,0,1,1,1V48a1,1,0,0,1-1,1H36v.87A1.19,1.19,0,0,1,35.39,51Z"/></g></svg>