<svg id="Light" xmlns="http://www.w3.org/2000/svg" width="33" height="54" viewBox="0 0 33 54">
  <defs>
    <style>
      .cls-1 {
        fill: #333;
      }
    </style>
  </defs>
  <title>Vector Smart Object2</title>
  <path id="iPad_Accessories" data-name="iPad Accessories" class="cls-1" d="M30,51h1.5A1.447,1.447,0,0,0,33,49.5V4.5A1.447,1.447,0,0,0,31.5,3L30,3.006V8h1V46H30v5Zm-1,.508V2.492A1.717,1.717,0,0,0,27.5,1c-0.5,0-6,1.5-6,1.5A2.474,2.474,0,0,0,20,4.624V49.379A2.466,2.466,0,0,0,21.5,51.5S27,53,27.5,53A1.611,1.611,0,0,0,29,51.508ZM0,4.7V49.3A1.713,1.713,0,0,0,1.717,51H10a2.625,2.625,0,0,1-1-1.7V4.7A2.623,2.623,0,0,1,10,3H1.717A1.714,1.714,0,0,0,0,4.7Zm10,0V49.3A1.713,1.713,0,0,0,11.717,51H20a2.625,2.625,0,0,1-1-1.7V4.7A2.623,2.623,0,0,1,20,3H11.717A1.714,1.714,0,0,0,10,4.7Z"/>
</svg>
