<svg xmlns="http://www.w3.org/2000/svg" xmlns:xlink="http://www.w3.org/1999/xlink" viewBox="0 0 41 54"><defs><style>.cls-1{fill:none;clip-rule:evenodd;}.cls-2{fill:#333;fill-rule:evenodd;}.cls-3{clip-path:url(#clip-path);}</style><clipPath id="clip-path"><polygon class="cls-1" points="-12.98 51.42 9.98 51.42 10.02 6.92 38.26 6.92 38.26 -15 -12.98 -15 -12.98 51.42"/></clipPath></defs><title>family-chapternav-iPad-master-09-crawford</title><g id="Light"><g id="iPad_Pro" data-name="iPad Pro"><path class="cls-2" d="M39.69,8H12.36A1.51,1.51,0,0,0,11,9.51V49.68A1.34,1.34,0,0,0,12.36,51H39.69A1.3,1.3,0,0,0,41,49.68V9.51A1.47,1.47,0,0,0,39.69,8ZM39,48a1,1,0,0,1-1,1H14a1,1,0,0,1-1-1V11a1,1,0,0,1,1-1H38a1,1,0,0,1,1,1Z"/><g class="cls-3"><path class="cls-2" d="M34,8V4.51A1.47,1.47,0,0,0,32.69,3H1.36A1.51,1.51,0,0,0,0,4.51V49.68A1.34,1.34,0,0,0,1.36,51H10m0-2H3a1,1,0,0,1-1-1V6A1,1,0,0,1,3,5H31a1,1,0,0,1,1,1V8"/></g></g></g></svg>