<svg xmlns="http://www.w3.org/2000/svg" viewBox="0 0 63.52 54"><defs><style>.cls-1{fill:#333;}</style></defs><title>family-chapternav-iPad-master-01-lily</title><g id="Light"><path class="cls-1" d="M47.71,34.38m6.15,15.76.45-.21a.25.25,0,0,0,.12-.33L48,35.92a.25.25,0,0,0-.33-.12l-.45.21a.25.25,0,0,0-.12.33L53.52,50A.25.25,0,0,0,53.85,50.14Zm9.53-46-.75-.38h0L61.29,3a.25.25,0,0,0-.34.11L38,48.13a.25.25,0,0,0,.11.34l1.34.68a.25.25,0,0,0,.34-.11l7.6-14.92.54.27a.25.25,0,0,0,.34-.11L63.49,4.43A.25.25,0,0,0,63.38,4.1Zm-23,43.56M50.75,49H30.25a.25.25,0,0,0-.25.25v.25H28V49H24v.5H23V49H19v.5H18V49H14v.5H13V49H9v.5H8V49H4v.5H1.25a.25.25,0,0,0-.25.25H0V50H1v.75a.25.25,0,0,0,.25.25h49.5a.25.25,0,0,0,.25-.25v-1.5A.25.25,0,0,0,50.75,49Zm3.42,1.86c.47-.47-.19-1.3-.21-1.33l-.2.16s.54.69.23,1-1.22-.23-1.81-.5a3.59,3.59,0,0,0-1-.37H49.78v.25h1.37a4.18,4.18,0,0,1,.94.35A5.27,5.27,0,0,0,53.8,51,.5.5,0,0,0,54.17,50.86Z"/></g></svg>