<?xml version="1.0" encoding="utf-8"?>
<!-- Generator: Adobe Illustrator 18.1.1, SVG Export Plug-In . SVG Version: 6.00 Build 0)  -->
<svg version="1.1"
	 xmlns="http://www.w3.org/2000/svg" xmlns:xlink="http://www.w3.org/1999/xlink" xmlns:a="http://ns.adobe.com/AdobeSVGViewerExtensions/3.0/"
	 x="0px" y="0px" width="28.98px" height="54px" viewBox="0 0 28.98 54" style="enable-background:new 0 0 28.98 54;"
	 xml:space="preserve">
<g id="Dark">
</g>
<g id="Light">
	<path id="Mac_Accessories_1_" style="fill:#333333;" d="M14.48,24C3.98,24,0,32.18,0,40.02v8.24c0,0.42,0.34,0.76,0.75,0.76
		c0.42,0,0.73-0.34,0.73-0.76v-8.24c0-7.13,3.5-14.5,13-14.5 M14.48,25.52c9.5,0,13,7.37,13,14.5v8.21c0,0.42,0.31,0.76,0.73,0.76
		c0.42,0,0.75-0.34,0.75-0.76v-8.21c0-7.83-3.98-16.02-14.48-16.02 M5.5,38.99c1.66,0,3,1.34,3,3v7c0,1.66-1.34,3-3,3
		c-1.66,0-3-1.34-3-3v-7C2.5,40.33,3.84,38.99,5.5,38.99z M23.48,38.99c1.66,0,3,1.34,3,3v7c0,1.66-1.34,3-3,3c-1.66,0-3-1.34-3-3
		v-7C20.48,40.33,21.82,38.99,23.48,38.99z"/>
</g>
</svg>
