<?xml version="1.0" encoding="utf-8"?>
<!-- Generator: Adobe Illustrator 21.1.0, SVG Export Plug-In . SVG Version: 6.00 Build 0)  -->
<svg version="1.1" id="Layer_1" xmlns="http://www.w3.org/2000/svg" xmlns:xlink="http://www.w3.org/1999/xlink" x="0px" y="0px"
	 width="28px" height="54px" viewBox="0 0 28 54" style="enable-background:new 0 0 28 54;" xml:space="preserve">
<style type="text/css">
	.st0{fill:#333333;}
	.st1{fill:none;}
</style>
<path class="st0" d="M22,23H6c-3.3,0-6,2.7-6,6v16c0,3.3,2.7,6,6,6h16c3.3,0,6-2.7,6-6V29C28,25.7,25.3,23,22,23z M23.4,34.8
	c0,0.1,0,0.1-0.1,0.2c0,0,0,0,0,0c-0.1,0.1-0.1,0.2-0.2,0.2c-0.2,0.2-0.5,0.4-0.7,0.5L18,38.9l1.7,5.3c0.1,0.3,0.2,0.6,0.2,0.8
	c0,0.1,0,0.2,0,0.3c0,0,0,0,0,0c0,0.1,0,0.1,0,0.2c0,0-0.1,0.1-0.1,0.1c0,0-0.1,0-0.1,0s-0.1,0-0.2,0c0,0,0,0,0,0
	c-0.1,0-0.2-0.1-0.3-0.1c-0.2-0.2-0.5-0.3-0.7-0.5L14,41.8l0,0l0,0l-4.5,3.2c-0.2,0.2-0.5,0.3-0.7,0.5c-0.1,0-0.2,0.1-0.3,0.1
	c0,0,0,0,0,0c-0.1,0-0.1,0-0.2,0c-0.1,0-0.1,0-0.1,0s-0.1-0.1-0.1-0.1c0,0,0-0.1,0-0.2c0,0,0,0,0,0c0-0.1,0-0.2,0-0.3
	c0.1-0.3,0.2-0.6,0.2-0.8l1.7-5.2l-4.5-3.2c-0.2-0.2-0.5-0.3-0.7-0.5C4.8,35.1,4.7,35,4.7,35c0,0,0,0,0,0c0-0.1-0.1-0.1-0.1-0.2
	c0-0.1,0-0.1,0-0.2c0,0,0.1-0.1,0.1-0.1c0.1,0,0.1-0.1,0.2-0.1c0,0,0,0,0,0c0.1,0,0.2,0,0.3,0c0.3,0,0.6,0,0.9,0h5.5l1.7-5.2
	c0.1-0.3,0.2-0.5,0.3-0.8c0-0.1,0.1-0.2,0.1-0.3c0,0,0,0,0,0c0-0.1,0.1-0.1,0.1-0.1c0.1,0,0.1,0,0.1,0s0.1,0,0.1,0
	c0.1,0,0.1,0.1,0.1,0.1c0,0,0,0,0,0c0.1,0.1,0.1,0.2,0.1,0.3c0.1,0.3,0.2,0.5,0.3,0.8l1.7,5.2H22c0.3,0,0.6,0,0.9,0
	c0.1,0,0.2,0,0.3,0c0,0,0,0,0,0c0.1,0,0.1,0,0.2,0.1c0,0,0.1,0.1,0.1,0.1C23.4,34.6,23.4,34.7,23.4,34.8
	C23.4,34.7,23.5,34.7,23.4,34.8z"/>
<rect class="st1" width="28" height="54"/>
</svg>
