<?xml version="1.0" encoding="utf-8"?>
<!-- Generator: Adobe Illustrator 19.2.1, SVG Export Plug-In . SVG Version: 6.00 Build 0)  -->
<svg version="1.1" id="watch_x5F_series_x5F_2" xmlns="http://www.w3.org/2000/svg" xmlns:xlink="http://www.w3.org/1999/xlink"
	 x="0px" y="0px" width="52px" height="54px" viewBox="0 0 52 54" style="enable-background:new 0 0 52 54;" xml:space="preserve">
<path style="fill:#333333;" d="M42.35,27.165c-0.016-0.779-0.026-1.439-0.026-1.84C42.324,20.657,35,17,25.9,17
	S9.511,20.657,9.511,25.325c0,0.414,0,1.102,0,1.913c-4.811,2.49-8.512,6.121-8.512,10.168C0.999,44.914,12.191,51,25.998,51
	s25.001-6.086,25.001-13.594C50.999,33.319,47.229,29.657,42.35,27.165z M26.058,18.046c8.362,0,15.142,3.259,15.142,7.279
	c0,1.276-0.686,2.473-1.886,3.516c-0.294,0.256-0.628,0.499-0.981,0.735c-0.074,0.05-0.151,0.098-0.228,0.147
	c-0.322,0.204-0.664,0.399-1.028,0.585c-0.058,0.029-0.111,0.061-0.169,0.09c-0.315,0.156-0.619,0.303-0.907,0.444v-0.233
	C36,29.165,34.916,28,33.447,28l-1.596-0.006h-6.383H23V27h-4v0.994h-0.447c-1.469,0-2.553,1.17-2.553,2.614v0.203
	c-0.279-0.132-0.634-0.268-0.928-0.413c-0.058-0.029-0.041-0.06-0.099-0.089c-0.087-0.045-0.172-0.09-0.253-0.136
	c-0.259-0.145-0.495-0.295-0.74-0.449c-0.077-0.049-0.136-0.097-0.211-0.147c-0.354-0.236-0.679-0.479-0.973-0.735
	c-1.199-1.043-1.882-2.24-1.882-3.516C10.914,21.305,17.695,18.046,26.058,18.046z M35,30.609v9.411c0,0.866-0.672,1.98-1.553,1.98
	H18.553C17.672,42,17,40.886,17,40.02v-9.411c0-0.866,0.672-1.569,1.553-1.569h14.894C34.328,29.04,35,29.742,35,30.609z
	 M25.998,49.641c-12.773,0-23.563-5.603-23.563-12.235c0-3.352,2.447-6.439,7.076-8.674c0,1.943,0,4.074,0,4.959
	c0,2.809,2.29,5.29,6.489,6.79C16.222,41.704,17.245,43,18.553,43h14.894c1.325,0,2.35-1.32,2.553-2.566
	c4.244-1.503,6.478-3.952,6.478-6.743c0-0.894-0.052-3.056-0.096-5.012c4.699,2.24,7.18,5.349,7.18,8.728
	C49.563,44.038,38.771,49.641,25.998,49.641z"/>
</svg>
