<svg id="Light" xmlns="http://www.w3.org/2000/svg" width="47" height="54" viewBox="0 0 47 54">
  <defs>
    <style>
      .cls-1 {
        fill: #333;
        fill-rule: evenodd;
      }
    </style>
  </defs>
  <title>Vector Smart Object1</title>
  <path id="iPad_Compare" data-name="iPad Compare" class="cls-1" d="M20.737,20H1.27A1.3,1.3,0,0,0,.006,21.256L0,49.8A1.264,1.264,0,0,0,1.27,51H20.737A1.306,1.306,0,0,0,22,49.743V21.256A1.3,1.3,0,0,0,20.737,20Zm-9.793,1.251a0.43,0.43,0,1,1-.432.43A0.432,0.432,0,0,1,10.943,21.251ZM11,50.5a1,1,0,1,1,1-1A1,1,0,0,1,11,50.5ZM20,48H2V23H20V48ZM33.743,11H8.257A1.24,1.24,0,0,0,7,12.25V19H9V15H33V47H23v2.743A1.306,1.306,0,0,1,21.737,51H33.743A1.241,1.241,0,0,0,35,49.75V12.25A1.24,1.24,0,0,0,33.743,11ZM21,13.5a0.5,0.5,0,1,1,.5-0.5A0.5,0.5,0,0,1,21,13.5ZM45.5,3h-31A1.484,1.484,0,0,0,13,4.5V10h2V7H45V47H36v2.75A1.241,1.241,0,0,1,34.743,51H45.5A1.485,1.485,0,0,0,47,49.5V4.5A1.485,1.485,0,0,0,45.5,3ZM30,5.75A0.75,0.75,0,1,1,30.75,5,0.75,0.75,0,0,1,30,5.75Z"/>
</svg>
