<?xml version="1.0" encoding="utf-8"?>
<!-- Generator: Adobe Illustrator 19.2.1, SVG Export Plug-In . SVG Version: 6.00 Build 0)  -->
<svg version="1.1" id="watch_x5F_series_x5F_2" xmlns="http://www.w3.org/2000/svg" xmlns:xlink="http://www.w3.org/1999/xlink"
	 x="0px" y="0px" width="17px" height="54px" viewBox="0 0 17 54" style="enable-background:new 0 0 17 54;" xml:space="preserve">
<path style="fill:#333333;" d="M1.62,10.24h0.62c0.69,0,1.25,0.55,1.25,1.24v19.76c0,2.72,2.25,4.94,5,4.94s5-2.22,5-4.94V11.47
	c0-0.68,0-1.24,1.25-1.24h0.62c0.34,0,0.62-0.28,0.62-0.62C16,9.28,15.72,9,15.38,9h-0.62h-2.5h-7.5h-2.5H1.62C1.28,9,1,9.28,1,9.62
	C1,9.96,1.28,10.24,1.62,10.24z M8.5,16.41c0.69,0,1.25,0.55,1.25,1.24c0,0.68-0.56,1.24-1.25,1.24s-1.25-0.55-1.25-1.24
	C7.25,16.96,7.81,16.41,8.5,16.41z M8.5,21.35c0.69,0,1.25,0.55,1.25,1.24c0,0.68-0.56,1.24-1.25,1.24s-1.25-0.55-1.25-1.24
	C7.25,21.91,7.81,21.35,8.5,21.35z M8.5,26.29c0.69,0,1.25,0.55,1.25,1.24c0,0.68-0.56,1.24-1.25,1.24s-1.25-0.55-1.25-1.24
	C7.25,26.85,7.81,26.29,8.5,26.29z M15.38,49.76h-0.62c-1.25,0-1.25-0.55-1.25-1.24V34.9c-1.14,1.51-2.95,2.51-5,2.51
	s-3.86-1-5-2.51v13.63c0,0.68-0.56,1.24-1.25,1.24H1.62C1.28,49.76,1,50.04,1,50.38C1,50.72,1.28,51,1.62,51h0.62H3.5h1.25h7.5h1.25
	h1.25h0.62c0.34,0,0.62-0.28,0.62-0.62C16,50.04,15.72,49.76,15.38,49.76z"/>
</svg>
