<?xml version="1.0" encoding="utf-8"?>
<!-- Generator: Adobe Illustrator 21.1.0, SVG Export Plug-In . SVG Version: 6.00 Build 0)  -->
<svg version="1.1" id="Icon"
	 xmlns="http://www.w3.org/2000/svg" xmlns:xlink="http://www.w3.org/1999/xlink" xmlns:a="http://ns.adobe.com/AdobeSVGViewerExtensions/3.0/"
	 x="0px" y="0px" width="49px" height="54px" viewBox="0 0 49 54" style="enable-background:new 0 0 49 54;" xml:space="preserve">
<path style="fill:#EFEFEF;" d="M36.61,27.52V27.5l-23.84,0C5.99,27.5,0.5,32.82,0.5,39.38c0,6.56,5.49,12.12,12.27,12.12
	c6.62,0,6.26-3.71,12.24-3.75c5.98,0.05,4.6,3.76,11.22,3.76c6.78,0,12.27-5.56,12.27-12.12C48.5,32.94,43.21,27.72,36.61,27.52z
	 M16.28,40.19h-3.09v3.09H10.8v-3.09H7.71v-2.39h3.09v-3.09h2.39v3.09h3.09V40.19z M33.5,40.5c-0.83,0-1.5-0.67-1.5-1.5
	s0.67-1.5,1.5-1.5S35,38.17,35,39S34.33,40.5,33.5,40.5z M37,44c-0.83,0-1.5-0.67-1.5-1.5S36.17,41,37,41s1.5,0.67,1.5,1.5
	S37.83,44,37,44z M37,37c-0.83,0-1.5-0.67-1.5-1.5S36.17,34,37,34s1.5,0.67,1.5,1.5S37.83,37,37,37z M40.5,40.5
	c-0.83,0-1.5-0.67-1.5-1.5s0.67-1.5,1.5-1.5S42,38.17,42,39S41.33,40.5,40.5,40.5z"/>
<rect x="0" style="fill:none;" width="49" height="54"/>
</svg>
