<?xml version="1.0" encoding="utf-8"?>
<!-- Generator: Adobe Illustrator 21.1.0, SVG Export Plug-In . SVG Version: 6.00 Build 0)  -->
<svg version="1.1" xmlns="http://www.w3.org/2000/svg" xmlns:xlink="http://www.w3.org/1999/xlink" x="0px" y="0px" width="23px"
	 height="54px" viewBox="0 0 23 54" style="enable-background:new 0 0 23 54;" xml:space="preserve">
<style type="text/css">
	.st0{display:none;}
	.st1{display:inline;opacity:0.7;fill:none;}
	.st2{display:inline;opacity:0.8;}
	.st3{fill:#F0F0F0;}
	.st4{fill:#EF5602;}
	.st5{fill:#333333;}
</style>
<g id="FPO">
</g>
<g id="UI">
</g>
<g id="Dark">
</g>
<g id="Light_1_">
	<g>
		<g>
			<path class="st5" d="M0.59,31.98c0,0.22,0.09,0.44,0.22,0.62c0.97,1.01,2.47,1.85,4.1,1.85c0.7,0,1.32-0.04,1.94-0.18v15.81
				c0,0.48,0.4,0.92,0.92,0.92h1.59c0.48,0,0.92-0.4,0.92-0.92V34.84v-0.7v-2.47c0-2.03-2.38-6.03-5.37-6.03
				c-1.63,0-3.13,0.79-4.1,1.85c-0.18,0.18-0.22,0.4-0.22,0.62L0.59,31.98z"/>
			<path class="st5" d="M12.75,31.67v2.47v0.7L12.7,50.08c0,0.48,0.4,0.92,0.92,0.92h1.59c0.48,0,0.92-0.4,0.92-0.92l0.04-15.81
				c0.62,0.09,1.23,0.18,1.94,0.18c1.63,0,3.13-0.79,4.1-1.81c0.18-0.18,0.22-0.4,0.22-0.62v-3.88c0-0.22-0.09-0.44-0.22-0.62
				c-0.97-1.01-2.42-1.85-4.1-1.85C15.17,25.64,12.75,29.64,12.75,31.67z"/>
		</g>
	</g>
</g>
</svg>
