<svg id="icons" xmlns="http://www.w3.org/2000/svg" viewBox="0 0 21 54"><defs><style>.cls-1{fill:#f0f0f0;}.cls-2{fill:none;}</style></defs><title>x</title><g id="iPhone_X_R_" data-name="iPhone X[R]"><path id="iPhone_X_R_2" data-name="iPhone X[R]" class="cls-1" d="M17.82,7H3.18A3.19,3.19,0,0,0,0,10.18V47.82A3.2,3.2,0,0,0,3.19,51H17.81A3.2,3.2,0,0,0,21,47.82V10.18A3.19,3.19,0,0,0,17.82,7ZM13.5,8.13a.38.38,0,1,1-.37.38A.37.37,0,0,1,13.5,8.13ZM9,8.25h3a.25.25,0,0,1,0,.5H9a.25.25,0,0,1,0-.5ZM20,48.08A1.92,1.92,0,0,1,18.08,50H2.92A1.92,1.92,0,0,1,1,48.08V10A2,2,0,0,1,2.92,8H4.55C4.7,8,5,8,5,8.26c0,0,0,.79,0,.85a1,1,0,0,0,1.09.9h8.83A1,1,0,0,0,16,9.13c0-.06,0-.85,0-.87,0-.27.32-.23.47-.26h1.61A2,2,0,0,1,20,10Z"/><rect class="cls-2" width="21" height="54"/></g></svg>