<?xml version="1.0" encoding="utf-8"?>
<!-- Generator: Adobe Illustrator 19.2.1, SVG Export Plug-In . SVG Version: 6.00 Build 0)  -->
<svg version="1.1" id="watch_x5F_series_x5F_2" xmlns="http://www.w3.org/2000/svg" xmlns:xlink="http://www.w3.org/1999/xlink"
	 x="0px" y="0px" width="25px" height="54px" viewBox="0 0 25 54" style="enable-background:new 0 0 25 54;" xml:space="preserve">
<path style="fill:#333333;" d="M23,23v-1.734c0-1.365-0.559-2.581-1.467-3.375c-0.191-0.167-0.349-0.412-0.5-0.614
	c-0.206-0.274-0.436-0.529-0.653-0.796c-0.798-0.982-1.223-2.013-1.323-3.275c-0.043-0.546-0.041-1.094-0.029-1.641
	c0.007-0.327,0.059-0.695-0.009-1.018c-0.12-0.584-0.546-0.918-1.157-1.108c-0.183-0.057-0.915-0.105-1.201-0.149
	c-0.212,0.531-0.728,0.908-1.333,0.908c-0.69,0-1.266-0.488-1.404-1.139c-0.782-0.033-1.554-0.049-2.171-0.049
	c-0.497,0-1.091,0.011-1.705,0.032c-0.132,0.659-0.712,1.155-1.409,1.155c-0.626,0-1.153-0.404-1.35-0.964
	C6.831,9.29,6.442,9.358,6.178,9.44c-0.61,0.189-1.036,0.561-1.155,1.145c-0.114,0.538,0.14,3.167-0.791,4.757
	c-0.227,0.392-0.97,1.521-1.401,2.172c-0.126,0.191-0.467,0.592-0.557,0.684C1.527,18.957,1,19.931,1,21.28v17.319
	c0.012,1.209,0.11,2.238,0.847,3.022c0.105,0.112,0.316,0.391,0.357,0.425c0.262,0.29,1.138,1.261,1.141,1.263
	c0.318,0.329,0.531,0.76,0.857,1.322c0.931,1.591,0.679,4.238,0.793,4.776c0.12,0.584,0.546,0.918,1.157,1.108
	c0.171,0.053,0.927,0.166,1.188,0.208c0.229-0.491,0.723-0.833,1.299-0.833c0.664,0,1.218,0.454,1.383,1.068
	c0.821,0.037,1.638,0.053,2.286,0.053c0.477,0,1.043-0.01,1.631-0.029c0.156-0.626,0.717-1.092,1.39-1.092
	c0.606,0,1.123,0.378,1.334,0.91c0.502-0.058,0.935-0.129,1.22-0.217c0.61-0.189,1.036-0.561,1.155-1.144
	c0.114-0.538-0.14-3.167,0.791-4.757c0.326-0.562,1.732-2.67,1.732-2.67s0.232-0.361,0.392-0.555C22.576,40.696,23,39.7,23,38.599
	V28h1v-5H23z M15.328,11.692c0.794,0,1.437,0.645,1.437,1.441c0,0.796-0.644,1.441-1.437,1.441s-1.437-0.645-1.437-1.441
	C13.89,12.338,14.534,11.692,15.328,11.692z M11.962,9.574c0.794,0,1.437,0.645,1.437,1.441c0,0.796-0.644,1.441-1.437,1.441
	c-0.794,0-1.437-0.645-1.437-1.441C10.525,10.219,11.168,9.574,11.962,9.574z M11.962,13.897c0.794,0,1.437,0.645,1.437,1.441
	c0,0.796-0.644,1.441-1.437,1.441c-0.794,0-1.437-0.645-1.437-1.441C10.525,14.542,11.168,13.897,11.962,13.897z M8.638,11.692
	c0.794,0,1.437,0.645,1.437,1.441c0,0.796-0.644,1.441-1.437,1.441s-1.437-0.645-1.437-1.441
	C7.201,12.338,7.844,11.692,8.638,11.692z M8.638,48.396c-0.794,0-1.437-0.645-1.437-1.441c0-0.796,0.644-1.441,1.437-1.441
	s1.437,0.645,1.437,1.441C10.075,47.75,9.432,48.396,8.638,48.396z M12.004,50.514c-0.794,0-1.437-0.645-1.437-1.441
	c0-0.796,0.644-1.441,1.437-1.441c0.794,0,1.437,0.645,1.437,1.441C13.441,49.869,12.798,50.514,12.004,50.514z M12.004,46.191
	c-0.794,0-1.437-0.645-1.437-1.441c0-0.796,0.644-1.441,1.437-1.441c0.794,0,1.437,0.645,1.437,1.441
	C13.441,45.546,12.798,46.191,12.004,46.191z M15.328,48.396c-0.794,0-1.437-0.645-1.437-1.441c0-0.796,0.644-1.441,1.437-1.441
	s1.437,0.645,1.437,1.441C16.765,47.75,16.122,48.396,15.328,48.396z M22,38.599C22,40.394,20.687,42,19.034,42H5.072
	C3.42,42,2,40.394,2,38.599V21.266C2,19.471,3.42,18,5.072,18h13.962C20.687,18,22,19.471,22,21.266V38.599z"/>
</svg>
