<?xml version="1.0" encoding="utf-8"?>
<!-- Generator: Adobe Illustrator 19.2.1, SVG Export Plug-In . SVG Version: 6.00 Build 0)  -->
<svg version="1.1" id="watch_x5F_series_x5F_2" xmlns="http://www.w3.org/2000/svg" xmlns:xlink="http://www.w3.org/1999/xlink"
	 x="0px" y="0px" width="37px" height="54px" viewBox="0 0 37 54" style="enable-background:new 0 0 37 54;" xml:space="preserve">
<path style="fill:#333333;" d="M9.934,29.92c0-7.695,2.457-14.331,6.017-17.513c0.029-0.601,0.053-1.036,0.074-1.35
	c-3.004,0.572-6.913,1.422-7.19,1.502c-4.619,1.332-7.797,8.634-7.797,17.398c0,9.05,3.412,16.466,8.253,17.436
	c0.217,0.044,3.616,0.814,6.734,1.399c-0.02-0.315-0.045-0.752-0.074-1.359C12.391,44.251,9.934,37.615,9.934,29.92z M35,23v-1.748
	c0-1.601-0.812-2.983-2-3.734v-1.604C33,15.361,32.6,15,32.049,15h-1.071c-0.06-1.917-0.129-3.887-0.18-4.237
	c-0.115-0.818-0.549-1.214-1.137-1.479C28.675,8.84,19.338,8.802,18.352,9.245c-0.588,0.265-1.022,0.874-1.137,1.692
	c-0.051,0.349-0.12,2.208-0.179,4.063h-0.948C15.537,15,15,15.361,15,15.914v1.604c-1.188,0.751-2,2.134-2,3.734v17.342
	c0,1.628,0.778,3.03,2,3.771v1.582C15,44.499,15.537,45,16.088,45h0.947c0.06,1.861,0.129,3.572,0.18,3.922
	c0.115,0.818,0.549,1.429,1.137,1.694c0.985,0.444,10.322,0.407,11.307-0.037c0.588-0.265,1.022-0.661,1.137-1.479
	c0.051-0.352,0.121-2.176,0.181-4.1h1.071c0.551,0,0.998-0.501,0.951-1.053v-1.656c1.2-0.76,2-2.124,2-3.697V28h1v-5H35z M31.55,16
	c0.275,0,0.45,0.138,0.45,0.414v0.655c-0.321-0.09-0.602-0.153-0.949-0.153h-0.015c-0.009-0.321-0.019-0.571-0.029-0.916H31.55z
	 M16,16.414C16,16.138,16.311,16,16.587,16h0.418c-0.01,0.347-0.02,0.601-0.029,0.928c-0.307,0.009-0.689,0.061-0.975,0.141V16.414z
	 M16.587,44C16.311,44,16,43.723,16,43.446v-0.65c0.286,0.075,0.669,0.123,0.975,0.127c0.009,0.323,0.019,0.733,0.029,1.076H16.587z
	 M32,43.446C32,43.723,31.825,44,31.55,44h-0.542c0.01-0.346,0.02-0.755,0.029-1.076c0.352-0.005,0.639-0.071,0.963-0.169V43.446z
	 M34,38.594C34,40.389,32.704,42,31.051,42H17.086C15.433,42,14,40.389,14,38.594V21.252C14,19.456,15.433,18,17.086,18h13.966
	C32.974,18,34,19.456,34,21.252V38.594z"/>
</svg>
