<svg id="icons" xmlns="http://www.w3.org/2000/svg" viewBox="0 0 23 54"><defs><style>.cls-1{fill:#f0f0f0;}.cls-2{fill:none;}</style></defs><title>x</title><g id="Airpods"><path class="cls-1" d="M13,31.54V50.08a.93.93,0,0,0,.92.92h1.85c.48,0,1.22-.4,1.22-.92V34.24a13.82,13.82,0,0,0,2,.18,5.14,5.14,0,0,0,3.8-1.81A.82.82,0,0,0,23,32V28a1.05,1.05,0,0,0-.22-.62,5.77,5.77,0,0,0-4.1-1.85C15.73,25.51,13,29.51,13,31.54Z"/><path class="cls-1" d="M10,31.54V50.08a.93.93,0,0,1-.92.92H7.3c-.48,0-1.22-.4-1.22-.92V34.24a13.82,13.82,0,0,1-2,.18A5.14,5.14,0,0,1,.3,32.61.82.82,0,0,1,.08,32V28A1.05,1.05,0,0,1,.3,27.4a5.77,5.77,0,0,1,4.1-1.85C7.34,25.51,10,29.51,10,31.54Z"/><rect class="cls-2" width="23" height="54"/></g></svg>