<?xml version="1.0" encoding="utf-8"?>
<!-- Generator: Adobe Illustrator 21.1.0, SVG Export Plug-In . SVG Version: 6.00 Build 0)  -->
<svg version="1.1" xmlns="http://www.w3.org/2000/svg" xmlns:xlink="http://www.w3.org/1999/xlink" x="0px" y="0px" width="32px"
	 height="54px" viewBox="0 0 32 54" style="enable-background:new 0 0 32 54;" xml:space="preserve">
<style type="text/css">
	.st0{display:none;}
	.st1{display:inline;opacity:0.7;fill:none;}
	.st2{display:inline;opacity:0.8;}
	.st3{fill:#F0F0F0;}
	.st4{fill:#EF5602;}
	.st5{fill:#333333;}
</style>
<g id="FPO">
</g>
<g id="UI">
	<g id="Menu_Component_3_" class="st0">
		<rect id="Background_3_" x="-758" y="-15" class="st1" width="1440" height="110"/>
	</g>
</g>
<g id="Dark">
	<path id="iOS12" class="st3" d="M31.35,23.26c-0.79-1.86-2.36-3.28-4.3-3.85c-1.26-0.32-2.56-0.45-3.86-0.41H8.81
		c-1.3-0.05-2.6,0.09-3.86,0.41c-1.94,0.58-3.51,1.99-4.3,3.85c-0.49,1.46-0.7,3-0.63,4.53v14.39c-0.07,1.54,0.15,3.07,0.63,4.53
		c0.79,1.86,2.36,3.28,4.3,3.85c1.26,0.32,2.56,0.45,3.86,0.41h14.39c1.3,0.05,2.6-0.09,3.86-0.41c1.94-0.58,3.51-1.99,4.3-3.85
		c0.49-1.46,0.7-3,0.63-4.53V27.8C32.06,26.26,31.84,24.72,31.35,23.26z M6.35,40.99H5.16v-7.11h1.19V40.99z M5.76,32.69
		c-0.41,0-0.73-0.34-0.73-0.74c0-0.41,0.34-0.73,0.74-0.73c0.4,0,0.73,0.33,0.73,0.74C6.5,32.36,6.17,32.69,5.76,32.69z M12.9,41.17
		c-3.14,0-5.11-2.24-5.11-5.81s1.98-5.82,5.11-5.82s5.12,2.25,5.12,5.82S16.04,41.17,12.9,41.17L12.9,41.17z M23.26,41.17
		c-2.36,0-4.01-1.3-4.13-3.24h1.07c0.12,1.35,1.39,2.27,3.15,2.27c1.69,0,2.9-0.92,2.9-2.19c0-1.05-0.73-1.68-2.4-2.1l-1.4-0.36
		c-2.08-0.53-3.01-1.41-3.01-2.9c0-1.82,1.64-3.12,3.86-3.12c2.2,0,3.8,1.3,3.86,3.08h-1.07c-0.1-1.27-1.23-2.12-2.83-2.12
		c-1.56,0-2.72,0.87-2.72,2.11c0,0.97,0.7,1.54,2.36,1.96l1.22,0.31c2.26,0.57,3.22,1.44,3.22,3.01
		C27.34,39.87,25.75,41.17,23.26,41.17L23.26,41.17z M12.9,30.53c-2.47,0-4.02,1.87-4.02,4.83s1.55,4.82,4.02,4.82
		s4.03-1.87,4.03-4.82S15.37,30.53,12.9,30.53z"/>
</g>
<g id="Light_1_">
</g>
</svg>
