<svg id="icons" xmlns="http://www.w3.org/2000/svg" viewBox="0 0 37 54"><defs><style>.cls-1{fill:#f0f0f0;}.cls-2{fill:none;}</style></defs><title>x</title><g id="iPhone_6s_7_8" data-name="iPhone 6s/7/8"><path id="iPhone_6s" data-name="iPhone 6s" class="cls-1" d="M14,48l0-1H1V17H14V13H2.87A2.89,2.89,0,0,0,0,15.88V48a3,3,0,0,0,2.87,3H15.64A4.08,4.08,0,0,1,14,48ZM8,15h3v.5H8ZM9.5,50.5A1.5,1.5,0,1,1,11,49,1.5,1.5,0,0,1,9.5,50.5ZM33.65,6H18.33A3.34,3.34,0,0,0,15,9.35V47.63A3.36,3.36,0,0,0,18.33,51H33.65A3.37,3.37,0,0,0,37,47.63V9.35A3.36,3.36,0,0,0,33.65,6ZM24.5,8.5h3V9h-3ZM26,50.25a1.75,1.75,0,1,1,1.75-1.75A1.75,1.75,0,0,1,26,50.25ZM36,46H16V11H36ZM26,49.5a1,1,0,1,1,1-1A1,1,0,0,1,26,49.5Zm-16.5.38a.88.88,0,1,1,.88-.88A.88.88,0,0,1,9.5,49.88Z"/><rect class="cls-2" width="37" height="54"/></g></svg>