<svg xmlns="http://www.w3.org/2000/svg" viewBox="0 0 21 54"><defs><style>.cls-1{fill:none}.cls-2{fill:#333}</style></defs><title>mac_pro_large</title><g id="Light"><path class="cls-1" d="M0 0h21v54H0z" id="Mac_Pro" data-name="Mac Pro"/><path class="cls-2" d="M4 49.75s0 .25-.22.25H2v1h5v-1H5.23C5 50 5 49.75 5 49.75v-1.82H4zm12 0s0 .23-.23.23H14v1h5V50h-1.77c-.22 0-.23-.23-.23-.23v-1.84h-1z"/><path class="cls-2" d="M2 15v33h17V15zm10.92 14.57a1 1 0 1 1-1-1 1 1 0 0 1 1 1zm-.45-4a1 1 0 1 1 1 1 1 1 0 0 1-1-1.02zm-1 8.06a1 1 0 1 1-1-1 1 1 0 0 1 1.04.98zm-1-7.06a1 1 0 1 1 1-1 1 1 0 0 1-.96.98zm-.58 3a1 1 0 1 1-1-1 1 1 0 0 1 1.03 1zm-2.38-3a1 1 0 1 1 1-1 1 1 0 0 1-.97.98zm-.59 3.13a1 1 0 1 1-1-1 1 1 0 0 1 1 1zm0 8.06a1 1 0 1 1-1-1 1 1 0 0 1 1 1zm-.38-4.15a1 1 0 1 1 1 1 1 1 0 0 1-1-1zm2.38 3a1 1 0 1 1-1 1 1 1 0 0 1 1-.98zm1.58 4a1 1 0 1 1-1 1 1 1 0 0 1 1.01-.93zm.42-3a1 1 0 1 1 1 1 1 1 0 0 1-1-.98zm1.55-4a1 1 0 1 1 1 1 1 1 0 0 1-1-1zM15 36.68a1 1 0 1 1-1 1 1 1 0 0 1 1-1zm-1-7.06a1 1 0 1 1 1 1 1 1 0 0 1-1-1.01zm0-8.06a1 1 0 1 1 1 1 1 1 0 0 1-1-1.01zm-.54-5.06a1 1 0 1 1-1 1 1 1 0 0 1 1.01-1.01zm-.55 5a1 1 0 1 1-1-1 1 1 0 0 1 1.01 1.01zm-2.42-5a1 1 0 1 1-1 1 1 1 0 0 1 1.02-1.01zm-.58 5a1 1 0 1 1-1-1 1 1 0 0 1 1.01 1.01zm-2.38-5a1 1 0 1 1-1 1 1 1 0 0 1 1.01-1.01zm-.62 5.15a1 1 0 1 1-1-1 1 1 0 0 1 1.01.98zm-2.33-5.16a1 1 0 1 1-1 1 1 1 0 0 1 1-1zm0 8.06a1 1 0 1 1-1 1 1 1 0 0 1 1-1zm0 8.06a1 1 0 1 1-1 1 1 1 0 0 1 1-1zm-1 9.06a1 1 0 1 1 1 1 1 1 0 0 1-1-.99zm2.34 4.9a1 1 0 1 1 1-1 1 1 0 0 1-1 1zm.62-4.9a1 1 0 1 1 1 1 1 1 0 0 1-1-.99zm2.38 4.77a1 1 0 1 1 1-1 1 1 0 0 1-1 1.01zm3 0a1 1 0 1 1 1-1 1 1 0 0 1-1 1.01zm.55-4.77a1 1 0 1 1 1 1 1 1 0 0 1-1-.99zM15 46.49a1 1 0 1 1 1-1 1 1 0 0 1-1 1zm1.43-3.81a1 1 0 1 1 1-1 1 1 0 0 1-1 1zm0-8.06a1 1 0 1 1 1-1 1 1 0 0 1-1 .99zm0-8.06a1 1 0 1 1 1-1 1 1 0 0 1-1 .99zm0-8.06a1 1 0 1 1 1-1 1 1 0 0 1-1 .99z"/><path class="cls-2" d="M6 12a1 1 0 0 0-.7.3 1 1 0 0 0-.3.7v2.18h-.9v-2.11a2.13 2.13 0 0 1 .62-1.47 2 2 0 0 1 1.45-.6h8.76a2 2 0 0 1 1.43.61 2.13 2.13 0 0 1 .64 1.46v2.12h-.9V13a1 1 0 0 0-.31-.72 1 1 0 0 0-.7-.3z"/></g></svg>