<svg id="icons" xmlns="http://www.w3.org/2000/svg" viewBox="0 0 50 54"><defs><style>.cls-1{fill:#f0f0f0;}.cls-2{fill:none;}</style></defs><title>x</title><g id="Compare"><g id="Compare-2" data-name="Compare"><path class="cls-1" d="M47.13,13H36v4H49V47H36v1a4,4,0,0,1-1.38,3H47.13A3,3,0,0,0,50,48V15.88A2.89,2.89,0,0,0,47.13,13ZM42,15.5H39V15h3Zm-1.5,35A1.5,1.5,0,1,1,42,49,1.5,1.5,0,0,1,40.5,50.5Z"/><path class="cls-1" d="M21.65,51H32a3,3,0,0,0,3-3V13a3,3,0,0,0-3-3H23v3h6a.92.92,0,0,0,1-.83c0-.06,0-.78,0-.81,0-.25.29-.34.44-.36H32.2A1.81,1.81,0,0,1,34,12.8V48.2A1.81,1.81,0,0,1,32.2,50H22.56A4.36,4.36,0,0,1,21.65,51ZM27,11.5a.25.25,0,0,1-.25.25h-2.5a.25.25,0,0,1,0-.5h2.5A.25.25,0,0,1,27,11.5Z"/><path class="cls-1" d="M18.66,5H3.34A3.35,3.35,0,0,0,0,8.34V47.66A3.36,3.36,0,0,0,3.36,51H18.64A3.36,3.36,0,0,0,22,47.66V8.34A3.35,3.35,0,0,0,18.66,5ZM13.5,6.13a.38.38,0,1,1-.37.38A.37.37,0,0,1,13.5,6.13Zm-4.25.34a.21.21,0,0,1,.21-.21h3.07a.21.21,0,0,1,.21.21v.07a.21.21,0,0,1-.21.21H9.46a.21.21,0,0,1-.21-.21ZM21,48a2,2,0,0,1-2,2H3a2,2,0,0,1-2-2V8A2,2,0,0,1,3,6h1.5c.16,0,.46.14.49.42,0,0,0,.59,0,.65A1,1,0,0,0,6.15,8h9.71A1,1,0,0,0,17,7.07c0-.06,0-.64,0-.67,0-.28.33-.38.49-.4H19a2,2,0,0,1,2,2Z"/></g><rect class="cls-2" width="50" height="54"/></g></svg>