<?xml version="1.0" encoding="utf-8"?>
<!-- Generator: Adobe Illustrator 19.2.1, SVG Export Plug-In . SVG Version: 6.00 Build 0)  -->
<svg version="1.1" xmlns="http://www.w3.org/2000/svg" xmlns:xlink="http://www.w3.org/1999/xlink" xmlns:a="http://ns.adobe.com/AdobeSVGViewerExtensions/3.0/"
	 x="0px" y="0px" width="33px" height="54px" viewBox="0 0 33 54" style="enable-background:new 0 0 33 54;" xml:space="preserve">
<g id="Dark">
</g>
<g id="Light">
	<path id="Accessories_2_" style="fill:#333333;" d="M6,50.5L6,50.5c-1.65,0-3-1.35-3-3v-8c0-1.65,1.35-3,3-3l0,0c1.65,0,3,1.35,3,3
		v8C9,49.15,7.65,50.5,6,50.5z M30,47.5v-8c0-1.65-1.35-3-3-3l0,0c-1.65,0-3,1.35-3,3v8c0,1.65,1.35,3,3,3l0,0
		C28.65,50.5,30,49.15,30,47.5z M32.5,38c0-9.19-7.34-17.25-16-17.25S0.5,28.81,0.5,38v10H2V38c0-8.39,6.64-15.75,14.5-15.75
		S31,29.61,31,38v10h1.5V38z"/>
</g>
</svg>
