<svg id="icons" xmlns="http://www.w3.org/2000/svg" viewBox="0 0 31 54"><defs><style>.cls-1{fill:#f0f0f0;}.cls-2{fill:none;}</style></defs><title>x</title><g id="Accessories"><path class="cls-1" d="M27.64,11H14.51C12.4,11,11,12.05,11,14.13v33.1A3.58,3.58,0,0,0,14.51,51h13A3.58,3.58,0,0,0,31,47.23V14.13h0C31,12.1,29.67,11.06,27.64,11ZM16,17.5a1.5,1.5,0,1,1-3,0v-3a1.5,1.5,0,0,1,3,0Z"/><path class="cls-1" d="M9.91,47.24V14.13c0-2.54,1.73-4.13,4.51-4.13H22V8.5C22,6.21,20.43,5,18.08,5H3.93C1.57,5,0,6.18,0,8.5V46.78A4,4,0,0,0,3.93,51h7.71A4.86,4.86,0,0,1,9.91,47.24ZM5,11.5a1.5,1.5,0,0,1-3,0v-3a1.5,1.5,0,0,1,3,0Z"/><rect class="cls-2" width="31" height="54"/></g></svg>