<svg id="Light" xmlns="http://www.w3.org/2000/svg" viewBox="0 0 25 54"><defs><style>.cls-1{fill:#333;}</style></defs><title>family-chapternav-watch-master-03-weir</title><path id="Apple_Watch_Series_1" data-name="Apple Watch Series 1" class="cls-1" d="M24,28V23H23V21.33a4.27,4.27,0,0,0-.59-2.16c-0.4-.68-1.11-1.26-1.54-1.93a9.64,9.64,0,0,1-1.31-3c-0.27-1.15-.19-2.34-0.42-3.5a1.77,1.77,0,0,0-1.68-1.4c-0.93-.13-1.87-0.2-2.81-0.26S12.68,9,11.7,9a28.24,28.24,0,0,0-5.59.43A1.53,1.53,0,0,0,5,10.57c-0.11.54-.2,1.86-0.3,2.63a7.49,7.49,0,0,1-1.88,4.44l-0.46.51A4.46,4.46,0,0,0,1,21.33V38.67a4.22,4.22,0,0,0,1.39,3.21A5.82,5.82,0,0,1,4.64,46c0.18,1.16.05,2.33,0.28,3.46a1.63,1.63,0,0,0,1.26,1.11,33.67,33.67,0,0,0,6.07.43,28.24,28.24,0,0,0,5.59-.43A1.53,1.53,0,0,0,19,49.43c0.11-.54-0.14-3.17.79-4.76,0.33-.56,1.74-2.67,1.74-2.67s0.16-.22.2-0.26A4.52,4.52,0,0,0,23,38.67V28h1ZM22,38.67A3.21,3.21,0,0,1,19,42H5a3.2,3.2,0,0,1-3-3.33V21.33A3.21,3.21,0,0,1,5,18H19a3.21,3.21,0,0,1,3,3.33V38.67Z"/></svg>