<?xml version="1.0" encoding="utf-8"?>
<!-- Generator: Adobe Illustrator 19.2.1, SVG Export Plug-In . SVG Version: 6.00 Build 0)  -->
<svg version="1.1" id="watch_x5F_series_x5F_2" xmlns="http://www.w3.org/2000/svg" xmlns:xlink="http://www.w3.org/1999/xlink"
	 x="0px" y="0px" width="25px" height="54px" viewBox="0 0 25 54" style="enable-background:new 0 0 25 54;" xml:space="preserve">
<path style="fill:#333333;" d="M23,23c0,0,0-1.628,0-1.628c0-1.009-0.301-2.021-0.928-2.82c-0.326-0.415-0.711-0.782-1.044-1.193
	c-0.368-0.455-0.709-0.933-1.021-1.429c-0.514-0.819-0.816-1.657-0.92-2.622c-0.083-0.768-0.053-1.535-0.055-2.304
	c0-0.142,0.004-0.29-0.024-0.43c-0.12-0.584-0.548-0.918-1.16-1.108c-1.026-0.317-4.36-0.429-6.08-0.429S7.205,9.15,6.179,9.467
	c-0.612,0.189-1.038,0.561-1.158,1.145c-0.115,0.538,0.141,3.167-0.793,4.757c-0.327,0.562-1.692,2.67-1.692,2.67
	C1.643,18.833,1,20.023,1,21.372v17.333c0,1.398,0.37,2.229,1.273,3.409c0.463,0.596,1.098,1.253,1.1,1.255
	c0.318,0.329,0.617,0.803,0.944,1.365c0.934,1.591,0.561,4.23,0.676,4.768c0.12,0.584,0.548,0.918,1.16,1.108
	c1.026,0.317,4.452,0.429,6.172,0.429c1.72,0,4.564-0.112,5.59-0.429c0.612-0.189,1.038-0.561,1.158-1.144
	c0.115-0.538-0.141-3.167,0.793-4.757c0.327-0.562,1.661-2.67,1.661-2.67C22.419,41.243,23,40.054,23,38.705V28h1v-5H23z
	 M5.113,15.873c0.807-1.375,0.844-3.31,0.866-4.441c0.005-0.278,0.004-0.516,0.024-0.635c0.035-0.169,0.119-0.301,0.5-0.418
	c0.772-0.239,3.52-0.341,5.309-0.341s4.938,0.091,5.709,0.33c0.442,0.137,0.476,0.276,0.5,0.396
	c0.021,0.119,0.019,0.323,0.024,0.602c0.022,1.137,0.059,3.121,0.868,4.498c0.234,0.401,0.48,0.789,0.762,1.136
	c-0.07-0.004-15.303-0.007-15.333,0C4.644,16.644,4.877,16.28,5.113,15.873z M18.981,44.203c-0.807,1.375-0.844,3.31-0.866,4.441
	c-0.005,0.278-0.004,0.516-0.024,0.635c-0.035,0.169-0.119,0.301-0.5,0.418c-0.772,0.239-3.52,0.341-5.309,0.341
	s-5.031-0.091-5.802-0.33c-0.442-0.137-0.476-0.276-0.5-0.396c-0.021-0.119-0.019-0.323-0.024-0.602
	c-0.022-1.137-0.059-3.121-0.868-4.498c-0.233-0.4-0.489-0.866-0.77-1.213C4.376,43.003,19,43,19,43c0.137,0,0.691,0.008,0.723,0
	C19.422,43.356,19.217,43.796,18.981,44.203z M22,38.705C22,40.5,20.719,42,19.062,42h-14C3.406,42,2,40.5,2,38.705V21.372
	c0-1.795,1.406-3.25,3.062-3.25h14c1.657,0,2.938,1.455,2.938,3.25V38.705z"/>
</svg>
