<?xml version="1.0" encoding="utf-8"?>
<svg version="1.1"
	 xmlns="http://www.w3.org/2000/svg" xmlns:xlink="http://www.w3.org/1999/xlink" xmlns:a="http://ns.adobe.com/AdobeSVGViewerExtensions/3.0/"
	 x="0px" y="0px" width="20px" height="54px" viewBox="0 0 20 54" style="enable-background:new 0 0 20 54;" xml:space="preserve">
<g id="Dark">
</g>
<g id="Light">
	<g id="iPhone_X_4_">
		<path id="iPhone_X_1_" style="fill:#333333;" d="M17,51c1.64,0,3-1.34,3-2.99V24.14V19.4v-6.41c0-1.64-1.34-2.99-2.99-2.99H2.99
			C1.34,10,0,11.34,0,12.99v2.47v9.66v22.89C0,49.66,1.36,51,3,51H17z M12.6,11.3c0.21,0,0.38,0.17,0.38,0.38
			c0,0.21-0.17,0.38-0.38,0.38c-0.21,0-0.38-0.17-0.38-0.38C12.22,11.47,12.39,11.3,12.6,11.3z M8.28,11.67
			c0-0.04,0.01-0.18,0.19-0.18h2.74c0.18,0,0.19,0.14,0.19,0.18v0.03c0,0.04-0.01,0.18-0.19,0.18H8.47c-0.18,0-0.19-0.14-0.19-0.18
			V11.67z M13.98,13c0.73,0,0.96-0.44,1.02-0.83c0.01-0.06,0-0.78,0-0.81c0.03-0.25,0.29-0.34,0.44-0.36h1.76
			c0.99,0,1.8,0.81,1.8,1.8v35.4c0,0.99-0.81,1.8-1.8,1.8H2.8C1.81,50,1,49.19,1,48.2V12.8C1,11.81,1.81,11,2.8,11h1.76
			c0.15,0.02,0.41,0.11,0.44,0.36c0,0.02-0.01,0.75,0,0.81C5.07,12.56,5.3,13,6.02,13H13.98z"/>
		<rect style="fill:none;" width="20" height="54"/>
	</g>
</g>
</svg>
