<?xml version="1.0" encoding="utf-8"?>
<!-- Generator: Adobe Illustrator 19.2.1, SVG Export Plug-In . SVG Version: 6.00 Build 0)  -->
<svg version="1.1" id="watch_x5F_series_x5F_2" xmlns="http://www.w3.org/2000/svg" xmlns:xlink="http://www.w3.org/1999/xlink"
	 x="0px" y="0px" width="44px" height="54px" viewBox="0 0 44 54" style="enable-background:new 0 0 44 54;" xml:space="preserve">
<g>
	<path style="fill:#333333;" d="M16.139,29.131c-2.59,0-4.21,1.986-4.21,5.143c0,3.148,1.62,5.134,4.21,5.134
		c2.581,0,4.21-1.986,4.21-5.134C20.348,31.117,18.719,29.131,16.139,29.131z"/>
	<path style="fill:#333333;" d="M18.245,23.479c0,0.375,0.325,0.618,0.832,0.618c0.651,0,1.136-0.416,1.136-0.992v-0.338
		l-1.058,0.066C18.558,22.874,18.245,23.096,18.245,23.479z"/>
	<path style="fill:#333333;" d="M22,9.25C10.558,9.25,1.25,18.558,1.25,30c0,11.442,9.308,20.75,20.75,20.75
		c11.442,0,20.75-9.308,20.75-20.75C42.75,18.558,33.442,9.25,22,9.25z M29.074,18.781h0.819v2.363h0.016
		c0.259-0.506,0.7-0.766,1.359-0.766c0.947,0,1.511,0.634,1.511,1.602v2.742h-0.823v-2.59c0-0.646-0.325-1.042-0.964-1.042
		c-0.683,0-1.095,0.465-1.095,1.169v2.462h-0.823V18.781z M26.5,20.375c1.091,0,1.766,0.692,1.845,1.503h-0.791
		c-0.078-0.457-0.445-0.803-1.046-0.803c-0.7,0-1.174,0.589-1.174,1.499c0,0.939,0.478,1.503,1.182,1.503
		c0.56,0,0.935-0.276,1.046-0.782h0.791c-0.103,0.885-0.824,1.478-1.845,1.478c-1.211,0-2.009-0.836-2.009-2.199
		C24.499,21.244,25.297,20.375,26.5,20.375z M19.299,21.062c-0.478,0-0.823,0.247-0.898,0.626h-0.774
		c0.025-0.753,0.737-1.313,1.688-1.313c1.042,0,1.717,0.548,1.717,1.4v2.948h-0.786v-0.721H20.23
		c-0.243,0.469-0.778,0.766-1.367,0.766c-0.856,0-1.445-0.511-1.445-1.272c0-0.749,0.572-1.186,1.631-1.252l1.165-0.07v-0.338
		C20.213,21.338,19.884,21.062,19.299,21.062z M12.056,20.424l0.815,3.426h0.017l0.922-3.426h0.795l0.922,3.426h0.021l0.811-3.426
		h0.811l-1.186,4.299h-0.848l-0.922-3.261h-0.021l-0.926,3.261h-0.84l-1.19-4.299H12.056z M16.139,41.092
		c-3.78,0-6.15-2.626-6.15-6.818c0-4.191,2.37-6.827,6.15-6.827s6.141,2.636,6.141,6.827C22.279,38.465,19.918,41.092,16.139,41.092
		z M22.249,23.595v-2.512h-0.626v-0.659h0.626v-1.029h0.824v1.029h0.823v0.659h-0.823v2.438c0,0.375,0.165,0.552,0.523,0.552
		c0.09,0,0.243-0.012,0.296-0.021v0.659c-0.09,0.025-0.292,0.037-0.478,0.037C22.578,24.748,22.249,24.422,22.249,23.595z
		 M28.574,41.092c-2.883,0-4.841-1.51-4.978-3.88h1.876c0.146,1.354,1.455,2.251,3.249,2.251c1.721,0,2.956-0.897,2.956-2.123
		c0-1.061-0.751-1.702-2.489-2.141l-1.693-0.421c-2.434-0.604-3.542-1.711-3.542-3.532c0-2.242,1.958-3.798,4.75-3.798
		c2.727,0,4.631,1.565,4.704,3.816h-1.858c-0.128-1.354-1.236-2.187-2.883-2.187c-1.638,0-2.773,0.842-2.773,2.059
		c0,0.961,0.714,1.528,2.453,1.968l1.428,0.357c2.718,0.659,3.834,1.73,3.834,3.652C33.607,39.564,31.667,41.092,28.574,41.092z"/>
</g>
</svg>
