<?xml version="1.0" encoding="utf-8"?>
<!-- Generator: Adobe Illustrator 21.1.0, SVG Export Plug-In . SVG Version: 6.00 Build 0)  -->
<svg version="1.1"
	 xmlns="http://www.w3.org/2000/svg" xmlns:xlink="http://www.w3.org/1999/xlink" xmlns:a="http://ns.adobe.com/AdobeSVGViewerExtensions/3.0/"
	 x="0px" y="0px" width="28px" height="54px" viewBox="0 0 28 54" style="enable-background:new 0 0 28 54;" xml:space="preserve">
<g id="Dark">
	<g id="iTunes_2_">
		<path style="fill:#EFEFEF;" d="M22,23H6c-3.3,0-6,2.7-6,6v16c0,3.3,2.7,6,6,6h16c3.3,0,6-2.7,6-6V29C28,25.7,25.3,23,22,23z
			 M23.44,34.77c-0.01,0.06-0.04,0.11-0.08,0.17c-0.01,0.01-0.01,0.02-0.02,0.03c-0.06,0.08-0.13,0.15-0.21,0.21
			c-0.23,0.18-0.46,0.36-0.7,0.53l-4.45,3.23l1.71,5.26c0.09,0.28,0.17,0.56,0.25,0.84c0.03,0.1,0.04,0.2,0.04,0.3
			c0,0.01,0,0.02,0,0.04c0,0.07-0.01,0.13-0.04,0.19c-0.02,0.05-0.06,0.1-0.1,0.13c-0.04,0.03-0.09,0.05-0.15,0.05
			c-0.06,0-0.12,0-0.19-0.02c-0.01,0-0.02-0.01-0.03-0.01c-0.09-0.03-0.18-0.08-0.27-0.13c-0.25-0.16-0.49-0.32-0.72-0.5l-4.47-3.25
			L14,41.84h0l-4.46,3.24c-0.24,0.17-0.48,0.34-0.72,0.5c-0.08,0.05-0.17,0.1-0.27,0.13c-0.01,0-0.02,0.01-0.03,0.01
			c-0.07,0.02-0.13,0.03-0.19,0.02c-0.06,0-0.11-0.02-0.15-0.05c-0.04-0.03-0.08-0.07-0.1-0.13c-0.02-0.05-0.03-0.12-0.04-0.19
			c0-0.01,0-0.02,0-0.04c0-0.1,0.02-0.2,0.04-0.3c0.08-0.28,0.16-0.56,0.25-0.84l1.7-5.25l-4.46-3.24c-0.24-0.17-0.47-0.35-0.7-0.53
			c-0.08-0.06-0.15-0.13-0.21-0.21c-0.01-0.01-0.01-0.02-0.02-0.03c-0.04-0.06-0.07-0.12-0.08-0.17c-0.01-0.06-0.01-0.11,0-0.16
			c0.02-0.05,0.05-0.09,0.09-0.13c0.05-0.04,0.1-0.07,0.17-0.09c0.01,0,0.02-0.01,0.03-0.01c0.1-0.03,0.19-0.05,0.29-0.05
			c0.29-0.02,0.58-0.02,0.88-0.02h5.54l1.71-5.25c0.09-0.28,0.19-0.55,0.29-0.83c0.04-0.09,0.08-0.18,0.14-0.26
			c0.01-0.01,0.01-0.02,0.02-0.03c0.04-0.06,0.09-0.1,0.14-0.13c0.05-0.03,0.1-0.05,0.15-0.05s0.1,0.02,0.15,0.05
			c0.05,0.03,0.1,0.08,0.14,0.13c0.01,0.01,0.01,0.02,0.02,0.03c0.06,0.08,0.1,0.17,0.14,0.26c0.11,0.27,0.2,0.55,0.29,0.83
			l1.7,5.25h5.5c0.29,0,0.59,0.01,0.88,0.02c0.1,0.01,0.2,0.02,0.29,0.05c0.01,0,0.02,0.01,0.03,0.01c0.07,0.02,0.12,0.05,0.17,0.09
			c0.04,0.04,0.08,0.08,0.09,0.13c0.01,0.02,0.01,0.05,0.01,0.08S23.45,34.74,23.44,34.77z"/>
		<rect style="fill:none;" width="28" height="54"/>
	</g>
</g>
<g id="Light">
</g>
</svg>
