<?xml version="1.0" encoding="utf-8"?>
<!-- Generator: Adobe Illustrator 19.2.1, SVG Export Plug-In . SVG Version: 6.00 Build 0)  -->
<svg version="1.1" xmlns="http://www.w3.org/2000/svg" xmlns:xlink="http://www.w3.org/1999/xlink" x="0px" y="0px" width="71px"
	 height="54px" viewBox="0 0 71 54" style="enable-background:new 0 0 71 54;" xml:space="preserve">
<g id="FPO_Dark" style="display:none;">
</g>
<g id="FPO_Light" style="display:none;">
	<g id="iPhone" style="display:inline;">
		<g id="Menu_Component_2_">
			<rect id="Background_2_" x="-679.104" y="-62" style="fill:#F7F7F7;" width="1000" height="160"/>
		</g>
	</g>
</g>
<g id="Spacing_Guide" style="display:none;">
</g>
<g id="Dark">
</g>
<g id="Light">
	<path style="fill:#333333;" d="M5.776,23.92c0.036-0.08,0.073-0.15,0.116-0.223c0.04-0.082,0.082-0.163,0.118-0.229
		c0.322-0.569,0.657-1.07,0.997-1.53c0.341-0.459,0.683-0.876,1.017-1.247c0.336-0.361,0.659-0.684,0.963-0.961
		c0.153-0.141,0.3-0.266,0.439-0.382c0.143-0.118,0.274-0.233,0.4-0.33c0.127-0.094,0.245-0.182,0.353-0.262
		c0.281-0.206,0.568-0.396,0.857-0.583c0.25-0.167,0.585-0.096,0.75,0.156c0.166,0.247,0.097,0.588-0.154,0.75
		c0,0-0.047,0.032-0.138,0.094c-0.046,0.032-0.102,0.07-0.17,0.117c-0.034,0.023-0.071,0.047-0.109,0.072
		c-0.036,0.025-0.074,0.051-0.114,0.08c-0.082,0.057-0.171,0.12-0.271,0.19c-0.099,0.08-0.207,0.166-0.324,0.258
		c-0.116,0.089-0.235,0.189-0.366,0.296c-0.129,0.115-0.264,0.237-0.403,0.362c-0.278,0.259-0.577,0.558-0.884,0.902
		c-0.306,0.336-0.621,0.724-0.932,1.162c-0.312,0.425-0.626,0.905-0.91,1.416c-0.041,0.074-0.07,0.136-0.101,0.199
		c-0.032,0.056-0.062,0.115-0.093,0.18c-0.062,0.137-0.12,0.279-0.175,0.419c-0.112,0.28-0.207,0.575-0.307,0.906
		c-0.051,0.165-0.1,0.326-0.175,0.528c-0.136,0.365-0.393,0.655-0.459,0.742c-0.008-0.039-0.014-0.078-0.022-0.117
		c-0.038-0.184-0.084-0.365-0.124-0.526c-0.178-0.699-0.318-1.251,0.078-2.111L5.776,23.92z"/>
	<path style="fill:#333333;" d="M65.178,23.795c-0.036-0.08-0.073-0.15-0.116-0.223c-0.04-0.082-0.082-0.163-0.118-0.229
		c-0.323-0.569-0.66-1.07-1.001-1.53c-0.342-0.459-0.686-0.876-1.021-1.247c-0.337-0.361-0.662-0.684-0.967-0.961
		c-0.153-0.141-0.301-0.266-0.441-0.382c-0.143-0.118-0.275-0.233-0.401-0.33c-0.128-0.094-0.246-0.182-0.354-0.262
		c-0.282-0.206-0.57-0.396-0.86-0.583c-0.251-0.167-0.587-0.096-0.753,0.156c-0.166,0.247-0.097,0.588,0.154,0.75
		c0,0,0.047,0.032,0.139,0.094c0.046,0.032,0.103,0.07,0.171,0.117c0.034,0.023,0.071,0.047,0.109,0.072
		c0.036,0.025,0.074,0.051,0.115,0.08c0.082,0.057,0.172,0.12,0.272,0.19c0.1,0.08,0.208,0.166,0.325,0.258
		c0.116,0.089,0.236,0.189,0.368,0.296c0.129,0.115,0.265,0.237,0.405,0.362c0.279,0.259,0.579,0.558,0.887,0.902
		c0.307,0.336,0.623,0.724,0.935,1.162c0.313,0.425,0.628,0.905,0.913,1.416c0.042,0.074,0.07,0.136,0.102,0.199
		c0.032,0.056,0.062,0.115,0.093,0.18c0.062,0.137,0.12,0.279,0.176,0.419c0.113,0.28,0.208,0.575,0.308,0.906
		c0.051,0.165,0.101,0.326,0.176,0.528c0.137,0.365,0.395,0.655,0.461,0.742c0.008-0.039,0.014-0.078,0.022-0.117
		c0.038-0.184,0.084-0.365,0.125-0.526c0.178-0.699,0.319-1.251-0.078-2.111L65.178,23.795z"/>
	<path style="fill:#333333;" d="M68.445,28.52c-0.156-0.452-0.544-1.078-0.91-1.521c-0.014,0.06-0.028,0.117-0.039,0.172
		c-0.159,0.786-0.064,1.27,0.065,1.938c0.053,0.267,0.107,0.543,0.15,0.858c0.633,4.505-0.822,8.398-1.12,9.133
		c-0.108,0.242-0.266,0.418-0.45,0.532c-0.536,1.271-1.217,2.467-2.042,3.605c-1.021,1.418-2.271,2.662-3.681,3.613
		c-1.41,0.955-2.978,1.6-4.562,1.932c-0.791,0.172-1.586,0.264-2.369,0.297c-0.195,0.008-0.39,0.014-0.585,0.014h-0.135
		l-0.153-0.002c-0.099-0.002-0.199-0.004-0.298-0.007c-0.369-0.014-0.751-0.039-1.118-0.082c-0.738-0.085-1.447-0.221-2.114-0.411
		c-0.334-0.096-0.657-0.203-0.97-0.325c-0.313-0.118-0.614-0.245-0.904-0.384l-0.109-0.051l-0.049-0.024
		c0,0-0.002-0.001-0.004-0.002l0.002,0.002c0.005,0.002-0.003-0.002-0.003-0.002l-0.014-0.008l-0.028-0.014
		c-0.074-0.039-0.149-0.078-0.223-0.116c-0.073-0.038-0.148-0.077-0.221-0.114l-0.108-0.056l-0.1-0.057
		c-0.13-0.076-0.26-0.15-0.387-0.224c-0.128-0.077-0.253-0.16-0.377-0.236c-0.493-0.319-0.945-0.648-1.34-0.989
		c-0.203-0.162-0.385-0.339-0.567-0.501c-0.169-0.172-0.345-0.331-0.49-0.503c-0.312-0.327-0.562-0.66-0.784-0.96
		c-0.114-0.153-0.218-0.312-0.324-0.47c-0.092-0.137-0.171-0.277-0.254-0.42c-0.079-0.138-0.149-0.278-0.213-0.423
		c-0.067-0.14-0.137-0.272-0.209-0.406c-0.032-0.062-0.063-0.128-0.095-0.194c-0.063-0.127-0.132-0.255-0.212-0.365
		c-0.092-0.117-0.21-0.222-0.361-0.295c-0.15-0.072-0.338-0.106-0.525-0.082c-0.258,0.031-0.493,0.166-0.655,0.375
		c-0.13,0.178-0.19,0.383-0.19,0.576c0,0.031,0.002,0.061,0.005,0.092c0.023,0.214,0.116,0.388,0.212,0.546
		c0.045,0.068,0.098,0.143,0.162,0.231c0.101,0.154,0.212,0.308,0.319,0.46c0.029,0.047,0.067,0.093,0.102,0.14
		c0.221,0.313,0.446,0.623,0.693,0.921c0.085,0.108,0.176,0.219,0.271,0.324c0.139,0.156,0.279,0.327,0.442,0.492
		c0.081,0.084,0.156,0.172,0.241,0.261c0.088,0.086,0.168,0.174,0.26,0.265c0.091,0.091,0.177,0.182,0.277,0.271
		c0.097,0.091,0.189,0.182,0.291,0.277c0.203,0.179,0.41,0.375,0.642,0.553c0.45,0.374,0.956,0.733,1.509,1.077
		c0.139,0.085,0.278,0.174,0.422,0.258c0.151,0.083,0.3,0.165,0.454,0.249l0.114,0.063l0.112,0.056
		c0.072,0.037,0.147,0.074,0.221,0.112c0.075,0.037,0.15,0.076,0.224,0.113l0.072,0.035l0.06,0.027l0.121,0.055
		c1.308,0.595,2.823,1.025,4.448,1.196c0.408,0.044,0.815,0.071,1.246,0.084c0.101,0.001,0.202,0.002,0.303,0.004l0.152,0.002
		l0.165-0.002c0.212-0.001,0.424-0.009,0.639-0.018c0.853-0.044,1.724-0.15,2.595-0.34c1.742-0.38,3.482-1.107,5.025-2.169
		c1.546-1.058,2.896-2.427,3.986-3.961c1.094-1.535,1.951-3.134,2.551-4.876c0.172-0.509,0.362-1.028,0.494-1.541
		c0.055-0.22,0.109-0.454,0.162-0.683C68.973,34.249,69.332,31.082,68.445,28.52z"/>
	<path style="fill:#333333;" d="M65.153,38.414c-0.033,0.086-0.048,0.129-0.048,0.129c-0.106,0.275,0.058,0.592,0.337,0.698
		c0.281,0.107,0.541-0.003,0.679-0.312c0.083-0.207,1.753-4.2,1.095-8.893c-0.043-0.305-0.095-0.573-0.146-0.831
		c-0.137-0.699-0.244-1.251-0.064-2.135c0.03-0.147,0.068-0.295,0.108-0.454c0.202-0.794,0.454-1.782-0.173-3.138
		c-1.925-4.163-5.425-6.511-6.844-7.324c-0.271-0.152-0.543-0.3-0.824-0.431c-0.709-0.323-1.652-0.681-2.401-0.848
		c-2.935-0.65-5.418-0.291-5.826-0.247c-1.625,0.171-3.14,0.68-4.449,1.275l-0.121,0.055l-0.06,0.027l-0.072,0.035
		c-0.074,0.037-0.149,0.075-0.224,0.113c-0.074,0.037-0.149,0.074-0.221,0.112L45.787,16.3l-0.114,0.063
		c-0.154,0.084-0.302,0.166-0.454,0.249c-0.144,0.084-0.283,0.173-0.422,0.258c-0.553,0.345-1.06,0.703-1.509,1.077
		c-0.232,0.178-0.439,0.374-0.642,0.553c-0.102,0.095-0.194,0.186-0.291,0.277c-0.1,0.09-0.186,0.18-0.277,0.271
		c-0.092,0.091-0.173,0.178-0.26,0.265c-0.085,0.09-0.159,0.177-0.241,0.261c-0.163,0.165-0.303,0.336-0.442,0.492
		c-0.095,0.105-0.186,0.215-0.271,0.324c-0.247,0.297-0.472,0.608-0.693,0.921c-0.035,0.047-0.073,0.093-0.102,0.14
		c-0.108,0.152-0.218,0.306-0.319,0.461c-0.065,0.087-0.117,0.163-0.162,0.231c-0.095,0.157-0.189,0.331-0.212,0.546
		c-0.003,0.031-0.005,0.061-0.005,0.092c0,0.194,0.06,0.398,0.19,0.576c0.162,0.209,0.397,0.345,0.655,0.375
		c0.187,0.024,0.375-0.01,0.525-0.082c0.151-0.073,0.269-0.178,0.361-0.295c0.08-0.11,0.149-0.238,0.212-0.365
		c0.032-0.066,0.063-0.131,0.095-0.194c0.072-0.133,0.142-0.266,0.209-0.406c0.064-0.145,0.134-0.286,0.213-0.423
		c0.083-0.143,0.161-0.283,0.254-0.42c0.106-0.159,0.21-0.317,0.324-0.47c0.222-0.301,0.473-0.633,0.784-0.96
		c0.145-0.172,0.321-0.331,0.49-0.503c0.182-0.162,0.364-0.339,0.567-0.501c0.395-0.341,0.847-0.669,1.34-0.989
		c0.124-0.077,0.249-0.16,0.377-0.236c0.127-0.074,0.258-0.149,0.387-0.224l0.1-0.057l0.108-0.056
		c0.073-0.037,0.148-0.075,0.221-0.114c0.074-0.038,0.149-0.077,0.223-0.116l0.028-0.014l0.014-0.008l0,0
		c0,0,0.008-0.004,0.003-0.002L47.049,17.3c0.002-0.001,0.003-0.002,0.003-0.002l0.049-0.024l0.109-0.051
		c0.29-0.139,0.591-0.266,0.904-0.384c0.313-0.121,0.637-0.229,0.97-0.325c0.667-0.19,1.376-0.406,2.114-0.491
		c0.367-0.043,2.725-0.439,5.556,0.216c0.678,0.156,1.324,0.372,1.962,0.657c0.246,0.11,0.504,0.243,0.742,0.372
		c1.314,0.754,4.567,2.905,6.34,6.739c0.439,0.951,0.28,1.575,0.096,2.298c-0.042,0.166-0.086,0.338-0.122,0.513
		c-0.231,1.131,0.001,1.675,0.151,2.445c0.048,0.243,0.144,0.674,0.176,0.946C66.614,34.716,65.169,38.376,65.153,38.414z"/>
	<path style="fill:#333333;" d="M42.511,22.836c-0.077,0.161-0.151,0.302-0.225,0.439l-0.07,0.146
		c-0.096,0.191-0.193,0.366-0.304,0.52c-0.223,0.283-0.46,0.477-0.734,0.61c-0.261,0.125-0.551,0.19-0.842,0.19
		c-0.083,0-0.166-0.005-0.25-0.017c-0.513-0.06-0.984-0.327-1.314-0.751c-0.271-0.371-0.402-0.773-0.402-1.191l0.009-0.187
		c0.034-0.308,0.133-0.541,0.24-0.748c-0.951,0.503-1.616,1.484-1.616,2.635v16.003c0,1.115,0.624,2.08,1.527,2.597
		c-0.071-0.168-0.126-0.349-0.149-0.557l-0.011-0.201c0-0.419,0.132-0.821,0.382-1.165c0.35-0.449,0.819-0.716,1.344-0.78
		c0.078-0.01,0.159-0.015,0.24-0.015c0.292,0,0.582,0.065,0.838,0.188c0.28,0.137,0.52,0.331,0.715,0.581
		c0.134,0.182,0.232,0.358,0.32,0.534l0.089,0.183c0.057,0.105,0.118,0.225,0.177,0.346c0.337-0.485,0.537-1.072,0.537-1.707v-16
		C43.01,23.878,42.825,23.31,42.511,22.836z M42.01,37.49c0,1.103-0.897,2-2,2s-2-0.897-2-2v-4c0-1.103,0.897-2,2-2s2,0.897,2,2
		V37.49z M40.01,30.49c-1.103,0-2-0.897-2-2s0.897-2,2-2s2,0.897,2,2S41.113,30.49,40.01,30.49z"/>
	<circle style="fill:#333333;" cx="40.01" cy="28.49" r="1"/>
	<path style="fill:#333333;" d="M40.01,38.49L40.01,38.49c-0.552,0-1-0.448-1-1v-4c0-0.552,0.448-1,1-1h0c0.552,0,1,0.448,1,1v4
		C41.01,38.042,40.563,38.49,40.01,38.49z"/>
	<g>
		<path style="fill:#333333;" d="M5.812,38.414C5.844,38.5,5.86,38.543,5.86,38.543c0.106,0.275-0.058,0.592-0.336,0.698
			c-0.28,0.107-0.539-0.003-0.677-0.312c-0.083-0.207-1.747-4.2-1.091-8.893c0.043-0.305,0.095-0.573,0.146-0.831
			c0.136-0.699,0.244-1.251,0.064-2.135c-0.029-0.147-0.068-0.295-0.108-0.454c-0.202-0.794-0.452-1.782,0.173-3.138
			c1.918-4.163,5.405-6.511,6.818-7.324c0.27-0.152,0.541-0.3,0.821-0.431c0.706-0.323,1.646-0.681,2.392-0.848
			c2.925-0.65,5.398-0.291,5.805-0.247c1.619,0.171,3.129,0.68,4.432,1.275l0.121,0.055l0.06,0.027l0.072,0.035
			c0.074,0.037,0.148,0.075,0.223,0.113c0.074,0.037,0.148,0.074,0.22,0.112l0.112,0.056l0.114,0.063
			c0.154,0.084,0.301,0.166,0.452,0.249c0.144,0.084,0.282,0.173,0.421,0.258c0.551,0.345,1.056,0.703,1.504,1.077
			c0.232,0.178,0.437,0.374,0.64,0.553c0.101,0.095,0.193,0.186,0.29,0.277c0.1,0.09,0.185,0.18,0.276,0.271
			c0.092,0.091,0.172,0.178,0.259,0.265c0.084,0.09,0.159,0.177,0.24,0.261c0.162,0.165,0.302,0.336,0.44,0.492
			c0.095,0.105,0.185,0.215,0.27,0.324c0.246,0.297,0.47,0.608,0.691,0.921c0.035,0.047,0.073,0.093,0.102,0.14
			c0.107,0.152,0.217,0.306,0.318,0.461c0.064,0.087,0.117,0.163,0.162,0.231c0.095,0.157,0.188,0.331,0.211,0.546
			c0.003,0.031,0.005,0.061,0.005,0.092c0,0.194-0.06,0.398-0.19,0.576c-0.162,0.209-0.396,0.345-0.653,0.375
			c-0.186,0.024-0.374-0.01-0.523-0.082c-0.15-0.073-0.268-0.178-0.36-0.295c-0.08-0.11-0.148-0.238-0.211-0.365
			c-0.032-0.066-0.063-0.131-0.095-0.194c-0.072-0.133-0.142-0.266-0.208-0.406c-0.064-0.145-0.134-0.286-0.213-0.423
			c-0.082-0.143-0.161-0.283-0.253-0.42c-0.106-0.159-0.209-0.317-0.323-0.47c-0.221-0.301-0.471-0.633-0.781-0.96
			c-0.144-0.172-0.319-0.331-0.488-0.503c-0.181-0.162-0.362-0.339-0.565-0.501c-0.394-0.341-0.844-0.669-1.335-0.989
			c-0.124-0.077-0.248-0.16-0.375-0.236c-0.126-0.074-0.257-0.149-0.386-0.224l-0.099-0.057l-0.108-0.056
			c-0.072-0.037-0.147-0.075-0.22-0.114c-0.074-0.038-0.148-0.077-0.222-0.116l-0.028-0.014L23.851,17.3l0,0
			c0,0-0.008-0.004-0.003-0.002L23.85,17.3c-0.002-0.001-0.003-0.002-0.003-0.002l-0.049-0.024l-0.108-0.051
			c-0.289-0.139-0.589-0.266-0.901-0.384c-0.312-0.121-0.634-0.229-0.967-0.325c-0.665-0.19-1.371-0.406-2.107-0.491
			c-0.366-0.043-2.715-0.439-5.536,0.216c-0.676,0.156-1.319,0.372-1.955,0.657c-0.245,0.11-0.502,0.243-0.739,0.372
			c-1.309,0.754-4.55,2.905-6.317,6.739c-0.438,0.951-0.279,1.575-0.095,2.298c0.042,0.166,0.086,0.338,0.122,0.513
			c0.23,1.131-0.001,1.675-0.151,2.445c-0.047,0.243-0.143,0.674-0.175,0.946C4.357,34.716,5.796,38.376,5.812,38.414z"/>
		<path style="fill:#333333;" d="M32.18,21.726c0.134,0.236,0.264,0.507,0.302,0.854l0.011,0.202c0,0.418-0.132,0.82-0.382,1.164
			c-0.349,0.45-0.82,0.719-1.348,0.78c-0.07,0.01-0.154,0.015-0.237,0.015c-0.292,0-0.582-0.065-0.839-0.189
			c-0.275-0.134-0.514-0.327-0.711-0.575c-0.137-0.189-0.233-0.364-0.321-0.539l-0.09-0.183c-0.043-0.079-0.091-0.175-0.138-0.267
			c-0.258,0.443-0.404,0.947-0.404,1.497V40.5c0,0.574,0.157,1.094,0.436,1.55c0.038-0.075,0.076-0.145,0.114-0.217l0.049-0.1
			c0.12-0.241,0.218-0.418,0.329-0.57c0.219-0.28,0.458-0.476,0.735-0.609c0.256-0.124,0.547-0.189,0.841-0.189
			c0.081,0,0.162,0.006,0.244,0.016c0.521,0.062,0.992,0.331,1.32,0.754c0.269,0.369,0.4,0.771,0.4,1.19l-0.009,0.186
			c-0.031,0.28-0.116,0.497-0.211,0.692c1.023-0.478,1.737-1.509,1.737-2.713v-16C34.011,23.248,33.256,22.182,32.18,21.726z"/>
		<path style="fill:#333333;" d="M31.312,41.748c-0.162-0.209-0.396-0.345-0.653-0.375c-0.186-0.024-0.374,0.01-0.523,0.082
			c-0.15,0.073-0.268,0.178-0.36,0.295c-0.08,0.111-0.148,0.238-0.211,0.365c-0.032,0.066-0.063,0.131-0.095,0.194
			c-0.072,0.133-0.142,0.266-0.208,0.406C29.198,42.86,29.129,43,29.05,43.138c-0.082,0.143-0.161,0.283-0.253,0.42
			c-0.106,0.159-0.209,0.317-0.323,0.47c-0.221,0.301-0.471,0.633-0.781,0.96c-0.144,0.172-0.319,0.331-0.488,0.503
			c-0.181,0.162-0.362,0.339-0.564,0.501c-0.394,0.341-0.844,0.669-1.335,0.989c-0.124,0.077-0.248,0.16-0.375,0.236
			c-0.126,0.074-0.257,0.149-0.386,0.224l-0.099,0.057l-0.108,0.056c-0.072,0.037-0.147,0.076-0.22,0.114
			c-0.074,0.038-0.148,0.077-0.222,0.116l-0.028,0.014l-0.014,0.008c0,0-0.008,0.004-0.003,0.002l0.002-0.002
			c-0.002,0.001-0.004,0.002-0.004,0.002l-0.048,0.024l-0.108,0.051c-0.289,0.139-0.589,0.266-0.901,0.384
			c-0.312,0.121-0.634,0.229-0.967,0.325c-0.665,0.19-1.371,0.326-2.107,0.411c-0.366,0.043-0.747,0.068-1.114,0.082
			c-0.099,0.002-0.198,0.004-0.297,0.007l-0.152,0.002h-0.135c-0.194,0-0.389-0.007-0.583-0.014c-0.78-0.034-1.572-0.126-2.36-0.297
			c-1.578-0.331-3.141-0.977-4.546-1.932c-1.405-0.951-2.65-2.195-3.667-3.613C6.04,42.1,5.362,40.904,4.828,39.633
			c-0.184-0.115-0.341-0.29-0.449-0.532c-0.297-0.734-1.747-4.628-1.116-9.133c0.043-0.315,0.097-0.592,0.15-0.858
			c0.129-0.669,0.224-1.152,0.065-1.938C3.467,27.116,3.454,27.059,3.439,27c-0.365,0.443-0.756,1.067-0.907,1.521
			c-0.839,2.515-0.512,5.774,0.08,8.38c0.052,0.229,0.106,0.463,0.161,0.683c0.132,0.513,0.322,1.033,0.493,1.541
			C3.864,40.866,4.718,42.465,5.808,44c1.085,1.534,2.431,2.903,3.971,3.961c1.538,1.062,3.27,1.79,5.007,2.169
			c0.867,0.19,1.736,0.296,2.586,0.34c0.214,0.009,0.426,0.016,0.636,0.018l0.165,0.002l0.151-0.002
			c0.1-0.002,0.202-0.003,0.302-0.004c0.429-0.013,0.835-0.04,1.241-0.084c1.619-0.171,3.129-0.601,4.432-1.196l0.121-0.055
			l0.06-0.027l0.072-0.035c0.074-0.037,0.148-0.076,0.223-0.113c0.074-0.037,0.148-0.074,0.22-0.112l0.112-0.056l0.114-0.063
			c0.154-0.084,0.301-0.166,0.452-0.249c0.144-0.084,0.282-0.173,0.421-0.258c0.551-0.345,1.056-0.703,1.504-1.077
			c0.232-0.178,0.437-0.374,0.64-0.553c0.101-0.095,0.193-0.186,0.29-0.277c0.1-0.09,0.185-0.18,0.276-0.271
			c0.092-0.091,0.172-0.178,0.259-0.265c0.085-0.09,0.159-0.177,0.24-0.261c0.162-0.165,0.302-0.336,0.44-0.492
			c0.095-0.105,0.185-0.216,0.27-0.324c0.246-0.298,0.47-0.608,0.691-0.921c0.035-0.047,0.073-0.093,0.102-0.14
			c0.107-0.152,0.217-0.306,0.318-0.46c0.064-0.088,0.117-0.163,0.162-0.231c0.095-0.158,0.188-0.331,0.211-0.546
			c0.003-0.031,0.005-0.061,0.005-0.092C31.502,42.131,31.442,41.926,31.312,41.748z"/>
	</g>
</g>
</svg>
