<?xml version="1.0" encoding="utf-8"?>
<!-- Generator: Adobe Illustrator 21.1.0, SVG Export Plug-In . SVG Version: 6.00 Build 0)  -->
<svg version="1.1" id="Icon"
	 xmlns="http://www.w3.org/2000/svg" xmlns:xlink="http://www.w3.org/1999/xlink" xmlns:a="http://ns.adobe.com/AdobeSVGViewerExtensions/3.0/"
	 x="0px" y="0px" width="41px" height="54px" viewBox="0 0 41 54" style="enable-background:new 0 0 41 54;" xml:space="preserve">
<path id="_xF8FF_tv_compare_-_on_dark" style="fill-rule:evenodd;clip-rule:evenodd;fill:#EFEFEF;" d="M40,27.8v14.4
	c0,1.14-0.01,2.94-0.64,4.54c-0.31,0.79-1.04,1.9-2.07,2.69c-0.59,0.45-1.3,0.89-2.28,1.17c-0.95,0.28-1.6,0.38-3.01,0.4
	c0.02-0.02,0.05-0.04,0.08-0.05c1.14-0.87,1.94-2.1,2.29-2.97c0.7-1.76,0.71-3.76,0.71-5.01V27.04c0-1.26-0.01-3.25-0.71-5.01
	c-0.35-0.87-1.15-2.1-2.29-2.97c-0.02-0.02-0.05-0.04-0.08-0.05c1.4,0.02,2.06,0.12,3.01,0.4c0.98,0.29,1.69,0.72,2.28,1.17
	c1.03,0.78,1.76,1.9,2.07,2.69C39.99,24.86,40,26.66,40,27.8z M32.37,23.26c-0.31-0.79-1.03-1.9-2.05-2.69
	c-0.59-0.45-1.29-0.89-2.25-1.17C27.04,19.1,25.77,19,24.2,19H9.8c-1.57,0-2.84,0.1-3.87,0.41c-0.96,0.29-1.67,0.72-2.25,1.17
	c-1.02,0.78-1.74,1.9-2.05,2.69C1.01,24.86,1,26.66,1,27.8v14.4c0,1.14,0.01,2.94,0.63,4.54c0.31,0.79,1.03,1.9,2.05,2.69
	c0.59,0.45,1.29,0.89,2.25,1.17C6.96,50.9,8.23,51,9.8,51h14.4c1.57,0,2.84-0.1,3.87-0.41c0.96-0.29,1.67-0.72,2.25-1.17
	c1.02-0.78,1.74-1.9,2.05-2.69c0.63-1.59,0.63-3.4,0.63-4.54V27.8C33,26.66,32.99,24.86,32.37,23.26z M11.14,30.98
	c0.34-0.41,0.93-0.72,1.44-0.74l0.07,0l0.01,0.07c0.05,0.52-0.13,1.09-0.5,1.56l0,0c-0.29,0.34-0.79,0.69-1.34,0.69
	c-0.04,0-0.08,0-0.11-0.01l-0.06,0l-0.01-0.06C10.55,31.9,10.86,31.31,11.14,30.98z M14.6,37.23c-0.07,0.21-0.26,0.77-0.65,1.33
	c-0.37,0.55-0.8,1.17-1.5,1.18c-0.32,0-0.54-0.09-0.75-0.18c-0.22-0.09-0.44-0.19-0.79-0.19c-0.37,0-0.61,0.1-0.84,0.2
	c-0.2,0.09-0.41,0.17-0.7,0.18c-0.01,0-0.02,0-0.04,0c-0.63,0-1.09-0.6-1.51-1.22c-0.89-1.28-1.4-3.4-0.59-4.79
	c0.41-0.73,1.18-1.2,2-1.21c0.36-0.01,0.7,0.13,1,0.24c0.22,0.09,0.4,0.16,0.55,0.16c0.13,0,0.32-0.07,0.53-0.16
	c0.35-0.14,0.79-0.31,1.27-0.28l0,0c0.98,0.08,1.5,0.57,1.77,0.96l0.04,0.06l-0.05,0.04c0,0-0.01,0.01-0.02,0.02
	c-0.29,0.19-0.97,0.74-0.96,1.72c0.01,1.19,0.92,1.7,1.2,1.83c0.02,0.01,0.03,0.01,0.04,0.02l0.03,0.03L14.6,37.23z M19.97,33.76
	h-1.34v3.9c0,0.58,0.24,0.83,0.79,0.83c0.14,0,0.38-0.02,0.46-0.03l0.08-0.01v1.21l-0.05,0.01c-0.17,0.05-0.53,0.06-0.79,0.06
	c-1.39,0-1.96-0.56-1.96-1.95v-4.02h-1.03v-1.21h1.03v-1.67h1.47v1.67h1.34V33.76z M24.58,39.7h-1.5l-2.6-7.14h1.56l1.79,5.54
	l1.79-5.54h1.54L24.58,39.7z"/>
</svg>
