<svg id="Light" xmlns="http://www.w3.org/2000/svg" width="22" height="54" viewBox="0 0 22 54">
  <defs>
    <style>
      .cls-1 {
        fill: #333;
        fill-rule: evenodd;
      }
    </style>
  </defs>
  <title>Vector Smart Object4</title>
  <path id="iPad_Mini_4" data-name="iPad Mini 4" class="cls-1" d="M20.737,20H1.27A1.3,1.3,0,0,0,.006,21.256L0,49.8A1.264,1.264,0,0,0,1.27,51H20.737A1.306,1.306,0,0,0,22,49.743V21.256A1.3,1.3,0,0,0,20.737,20Zm-9.793,1.251a0.43,0.43,0,1,1-.432.43A0.432,0.432,0,0,1,10.943,21.251ZM11,50.5a1,1,0,1,1,1-1A1,1,0,0,1,11,50.5ZM20,48H2V23H20V48Z"/>
</svg>
