<svg id="icons" xmlns="http://www.w3.org/2000/svg" viewBox="0 0 35 54"><defs><style>.cls-1{fill:#f0f0f0;}</style></defs><title>x</title><g id="iPhone_X_S_Max" data-name="iPhone X[S] / Max"><path class="cls-1" d="M12.44,50H2.8A1.81,1.81,0,0,1,1,48.2V12.8A1.81,1.81,0,0,1,2.8,11H4.56c.15,0,.41.11.44.36,0,0,0,.75,0,.81A.92.92,0,0,0,6,13h6V10H3a3,3,0,0,0-3,3V48a3,3,0,0,0,3,3H13.35A4.36,4.36,0,0,1,12.44,50ZM8.25,11.25h2.5a.25.25,0,0,1,0,.5H8.25a.25.25,0,0,1,0-.5Z"/><path class="cls-1" d="M31.66,5H16.34A3.35,3.35,0,0,0,13,8.34V47.66A3.36,3.36,0,0,0,16.36,51H31.64A3.36,3.36,0,0,0,35,47.66V8.34A3.35,3.35,0,0,0,31.66,5ZM26.5,6.13a.38.38,0,1,1-.37.38A.37.37,0,0,1,26.5,6.13Zm-4.25.34a.21.21,0,0,1,.21-.21h3.07a.21.21,0,0,1,.21.21v.07a.21.21,0,0,1-.21.21H22.46a.21.21,0,0,1-.21-.21ZM34,48a2,2,0,0,1-2,2H16a2,2,0,0,1-2-2V8a2,2,0,0,1,2-2h1.5c.16,0,.46.14.49.42,0,0,0,.59,0,.65A1,1,0,0,0,19.15,8h9.71A1,1,0,0,0,30,7.07c0-.06,0-.64,0-.67,0-.28.33-.38.49-.4H32a2,2,0,0,1,2,2Z"/></g></svg>