<?xml version="1.0" encoding="utf-8"?>
<!-- Generator: Adobe Illustrator 21.1.0, SVG Export Plug-In . SVG Version: 6.00 Build 0)  -->
<svg version="1.1" id="Icon"
	 xmlns="http://www.w3.org/2000/svg" xmlns:xlink="http://www.w3.org/1999/xlink" xmlns:a="http://ns.adobe.com/AdobeSVGViewerExtensions/3.0/"
	 x="0px" y="0px" width="49px" height="54px" viewBox="0 0 49 54" style="enable-background:new 0 0 49 54;" xml:space="preserve">
<path style="fill:#EFEFEF;" d="M46.12,19H3c-1.1,0-2,0.9-2,2v24.96c0,1.1,0.9,2,2,2h43c1.1,0,2-0.9,2-2V20.88
	C48,19.85,47.15,19,46.12,19L46.12,19z M35.5,51h-22c-0.55,0-1-0.45-1-1s0.45-1,1-1h22c0.55,0,1,0.45,1,1S36.05,51,35.5,51z"/>
<rect x="3" y="21" style="fill:#666666;" width="43" height="25"/>
<rect style="fill:none;" width="49" height="54"/>
</svg>
