<?xml version="1.0" encoding="utf-8"?>
<!-- Generator: Adobe Illustrator 19.2.1, SVG Export Plug-In . SVG Version: 6.00 Build 0)  -->
<svg version="1.1"
	 xmlns="http://www.w3.org/2000/svg" xmlns:xlink="http://www.w3.org/1999/xlink" xmlns:a="http://ns.adobe.com/AdobeSVGViewerExtensions/3.0/"
	 x="0px" y="0px" width="38px" height="54px" viewBox="0 0 38 54" style="enable-background:new 0 0 38 54;" xml:space="preserve">
<g id="Dark">
</g>
<g id="Light">
	<path id="iPhone_7_1_" style="fill:#333333;" d="M14.99,48.13l-0.04-1.12H2V16.99h13V13H3.87C2.29,13,1,14.3,1,15.88v32.26
		C1,49.71,2.29,51,3.87,51h12.77C15.79,50.33,14.99,49.3,14.99,48.13z M9,15h3v0.5H9V15z M10.5,50.5C9.67,50.5,9,49.83,9,49
		c0-0.83,0.67-1.5,1.5-1.5c0.83,0,1.5,0.67,1.5,1.5C12,49.83,11.33,50.5,10.5,50.5z M34.65,6H19.33C17.49,6,16,7.51,16,9.35v38.28
		c0,1.85,1.49,3.37,3.33,3.37h15.33c1.84,0,3.35-1.52,3.35-3.37V9.35C38,7.51,36.49,6,34.65,6z M25.5,8.5h3V9h-3V8.5z M27,50.25
		c-0.97,0-1.75-0.78-1.75-1.75c0-0.97,0.79-1.75,1.75-1.75c0.96,0,1.75,0.78,1.75,1.75C28.75,49.47,27.97,50.25,27,50.25z M37,46H17
		V11h20V46z M27,49.5c-0.55,0-1-0.45-1-1c0-0.55,0.45-1,1-1s1,0.45,1,1C28,49.05,27.55,49.5,27,49.5z M10.5,49.88
		c-0.48,0-0.87-0.39-0.87-0.88c0-0.48,0.39-0.87,0.87-0.87s0.88,0.39,0.88,0.87C11.38,49.48,10.98,49.88,10.5,49.88z"/>
</g>
</svg>
