<?xml version="1.0" encoding="utf-8"?>
<!-- Generator: Adobe Illustrator 19.2.1, SVG Export Plug-In . SVG Version: 6.00 Build 0)  -->
<svg version="1.1"
	 xmlns="http://www.w3.org/2000/svg" xmlns:xlink="http://www.w3.org/1999/xlink" xmlns:a="http://ns.adobe.com/AdobeSVGViewerExtensions/3.0/"
	 x="0px" y="0px" width="18px" height="54px" viewBox="0 0 18 54" style="enable-background:new 0 0 18 54;" xml:space="preserve">
<g id="Dark">
</g>
<g id="Light">
	<path id="iPhone_SE" style="fill:#333333;" d="M15.06,16H4c-1.77,0-3,1.18-3,2.93v29.13C1,49.82,2.23,51,4,51h11.06
		c1.73,0,2.94-1.2,2.94-2.93V18.93C18,17.21,16.82,16,15.06,16z M8,18h3l0,0.5H8L8,18z M9.5,50c-0.55,0-1-0.45-1-1s0.45-1,1-1
		c0.55,0,1,0.45,1,1S10.05,50,9.5,50z M17,47H2V20h15V47z"/>
</g>
</svg>
