<?xml version="1.0" encoding="utf-8"?>
<!-- Generator: Adobe Illustrator 19.2.1, SVG Export Plug-In . SVG Version: 6.00 Build 0)  -->
<svg version="1.1"
	 xmlns="http://www.w3.org/2000/svg" xmlns:xlink="http://www.w3.org/1999/xlink" xmlns:a="http://ns.adobe.com/AdobeSVGViewerExtensions/3.0/"
	 x="0px" y="0px" width="44px" height="54px" viewBox="0 0 44 54" style="enable-background:new 0 0 44 54;" xml:space="preserve">
<g id="Dark">
</g>
<g id="Light">
	<path style="fill:#333333;" d="M15.92,12h7.58V9.5c0-2.29-1.58-3.5-3.92-3.5H4.93C2.56,6,1,7.18,1,9.5v37.23l0,0.05
		C1.03,49.07,2.59,51,4.93,51h8.05C12.52,50.4,12,49.64,12,48.73V16.09C12,13.64,13.65,12,15.92,12z M7.65,10.6H5.09
		c-0.85,0-1.53-0.69-1.53-1.53c0-0.85,0.69-1.53,1.53-1.53h2.56c0.85,0,1.53,0.69,1.53,1.53C9.18,9.92,8.5,10.6,7.65,10.6z"/>
	<path style="fill:#333333;" d="M40.05,35.56c1,0,2.46,0.82,2.85,1.47c0.05,0.09,0.07,1.17,0.07,1.17c0,0.64-0.05,1.11-0.08,1.23
		c-0.03,0.12-1.4,1.4-2.81,1.4c-0.75,0-1.08-0.43-1.08-0.43v10.1c0,0.27-0.4,0.5-0.67,0.5l-0.82,0c-0.27,0-0.51-0.23-0.51-0.5
		c0,0,0.01-7.99,0.01-8.96C37.01,39.23,37.31,35.56,40.05,35.56z"/>
	<path style="fill:#333333;" d="M32.78,42.01c-1.8,0-3.77-1.65-3.92-2.31c-0.06-0.25-0.11-0.85-0.11-1.47
		c0.01-1.31,0.08-1.47,0.22-1.7c0.55-0.92,2.15-1.94,3.55-1.94c0.06,0,0.41,0.01,0.47,0.01V16.23c0-2.05-1.33-3.23-3.38-3.23H16.38
		C14.33,13,13,14.2,13,16.25v31.67c0,2.05,1.3,3.08,3.34,3.08h13.34c2,0,3.32-1.02,3.32-3.06L33,42c0,0-0.01,0-0.01,0
		C32.92,42,32.85,42.01,32.78,42.01z M19.15,17.25h-2.05c-0.71,0-1.28-0.57-1.28-1.28c0-0.71,0.57-1.28,1.28-1.28h2.05
		c0.71,0,1.28,0.57,1.28,1.28C20.43,16.68,19.86,17.25,19.15,17.25z"/>
	<path style="fill:#333333;" d="M32.75,35.58c-1,0-2.29,0.81-2.68,1.45c-0.05,0.09-0.07,1.17-0.07,1.17c0,0.64,0.05,1.11,0.08,1.23
		c0.03,0.12,1.23,1.42,2.63,1.42c0.75,0,1.28-0.45,1.28-0.45v10.08c0,0.27,0.19,0.49,0.46,0.49h1.05c0.27,0,0.49-0.22,0.49-0.49
		c0,0,0-7.88,0-8.85C36,39.32,35.49,35.58,32.75,35.58z"/>
</g>
</svg>
