<?xml version="1.0" encoding="utf-8"?>
<!-- Generator: Adobe Illustrator 16.0.4, SVG Export Plug-In . SVG Version: 6.00 Build 0)  -->
<!DOCTYPE svg PUBLIC "-//W3C//DTD SVG 1.1//EN" "http://www.w3.org/Graphics/SVG/1.1/DTD/svg11.dtd">
<svg version="1.1" xmlns="http://www.w3.org/2000/svg" xmlns:xlink="http://www.w3.org/1999/xlink" x="0px" y="0px" width="50px"
	 height="54px" viewBox="0 0 50 54" enable-background="new 0 0 50 54" xml:space="preserve">
<g id="Dark">
</g>
<g id="Light">
	<g id="iPhone_1_">
		<path id="iPhone_Compare" fill="#333333" d="M47.057,16H38v4h11v27H38c0,0,0.016,1,0,1c0,2.531-1.701,3-1.701,3h10.758
			C48.787,51,50,49.801,50,48.067V18.935C50,17.207,48.821,16,47.057,16z M40,18h3l0.001,0.5h-3L40,18z M41.5,50
			c-0.552,0-1-0.448-1-1s0.448-1,1-1c0.551,0,1,0.448,1,1S42.051,50,41.5,50z M21.258,51H34.13c1.575,0,2.87-1.287,2.87-2.859
			V15.877C37,14.303,35.706,13,34.13,13H23v3.993h13v30.015H23.05l-0.044,1.121C23.005,49.295,22.146,50.406,21.258,51z M29,15.5h-3
			V15h3V15.5z M26,49.001c0-0.828,0.672-1.501,1.499-1.501c0.827,0,1.501,0.673,1.501,1.501c0,0.825-0.674,1.499-1.501,1.499
			C26.672,50.5,26,49.826,26,49.001z M0,9.354V47.63C0,49.477,1.507,51,3.347,51h15.326C20.515,51,22,49.477,22,47.63V9.354
			C22,7.51,20.515,6,18.673,6H3.347C1.507,6,0,7.51,0,9.354z M12.5,9.001h-3v-0.5h3V9.001z M9.25,48.5
			c0-0.966,0.784-1.75,1.749-1.75c0.966,0,1.751,0.784,1.751,1.75c0,0.967-0.785,1.75-1.751,1.75
			C10.034,50.25,9.25,49.467,9.25,48.5z M1,11h20v35H1V11z M10,48.499c0-0.551,0.449-0.999,1-0.999s1,0.448,1,0.999
			c0,0.552-0.449,1.001-1,1.001S10,49.051,10,48.499z M26.625,49c0-0.482,0.393-0.875,0.875-0.875s0.875,0.393,0.875,0.875
			c0,0.483-0.392,0.875-0.875,0.875S26.625,49.483,26.625,49z"/>
	</g>
</g>
</svg>
